{"glyphs":{"0":{"ha":660,"x_min":0,"x_max":590,"o":"m 451 833 l 590 694 l 590 139 l 451 0 l 308 0 l 308 208 l 382 208 l 382 625 l 308 625 l 308 833 l 451 833 m 139 0 l 0 139 l 0 694 l 139 833 l 281 833 l 281 625 l 208 625 l 208 208 l 281 208 l 281 0 l 139 0 z "},"1":{"ha":417,"x_min":0,"x_max":347,"o":"m 278 833 l 278 208 l 347 208 l 347 0 l 0 0 l 0 208 l 69 208 l 69 625 l 0 625 l 0 833 l 278 833 z "},"2":{"ha":639,"x_min":0,"x_max":569,"o":"m 271 0 l 0 0 l 0 438 l 361 549 l 361 625 l 299 625 l 299 833 l 431 833 l 569 694 l 569 396 l 208 285 l 208 208 l 271 208 l 271 0 m 299 208 l 361 208 l 361 278 l 569 278 l 569 0 l 299 0 l 299 208 m 271 833 l 271 625 l 208 625 l 208 556 l 0 556 l 0 833 l 271 833 z "},"3":{"ha":639,"x_min":0,"x_max":569,"o":"m 0 0 l 0 313 l 208 313 l 208 208 l 271 208 l 271 0 l 0 0 m 299 208 l 361 208 l 361 347 l 208 347 l 208 486 l 361 486 l 361 625 l 299 625 l 299 833 l 569 833 l 569 486 l 500 417 l 569 347 l 569 139 l 431 0 l 299 0 l 299 208 m 208 625 l 208 521 l 0 521 l 0 694 l 139 833 l 271 833 l 271 625 l 208 625 z "},"4":{"ha":667,"x_min":0,"x_max":597,"o":"m 292 417 l 292 264 l 0 264 l 0 417 l 208 833 l 292 833 l 292 597 l 201 417 l 292 417 m 319 833 l 528 833 l 528 417 l 597 417 l 597 264 l 528 264 l 528 208 l 597 208 l 597 0 l 250 0 l 250 208 l 319 208 l 319 833 z "},"5":{"ha":639,"x_min":0,"x_max":569,"o":"m 271 0 l 0 0 l 0 278 l 208 278 l 208 208 l 271 208 l 271 0 m 299 208 l 361 208 l 361 285 l 0 396 l 0 833 l 271 833 l 271 625 l 208 625 l 208 549 l 569 438 l 569 139 l 431 0 l 299 0 l 299 208 m 299 833 l 569 833 l 569 556 l 361 556 l 361 625 l 299 625 l 299 833 z "},"6":{"ha":639,"x_min":0,"x_max":569,"o":"m 569 833 l 569 556 l 361 556 l 361 625 l 299 625 l 299 833 l 569 833 m 299 208 l 361 208 l 361 333 l 208 333 l 208 208 l 271 208 l 271 0 l 0 0 l 0 694 l 139 833 l 271 833 l 271 625 l 208 625 l 208 500 l 569 500 l 569 139 l 431 0 l 299 0 l 299 208 z "},"7":{"ha":625,"x_min":0,"x_max":556,"o":"m 208 625 l 208 556 l 0 556 l 0 833 l 556 833 l 556 625 l 208 625 m 547 597 l 385 0 l 174 0 l 335 597 l 547 597 z "},"8":{"ha":639,"x_min":0,"x_max":569,"o":"m 271 0 l 139 0 l 0 139 l 0 347 l 69 417 l 0 486 l 0 694 l 139 833 l 271 833 l 271 625 l 208 625 l 208 486 l 361 486 l 361 625 l 299 625 l 299 833 l 431 833 l 569 694 l 569 486 l 500 417 l 569 347 l 569 139 l 431 0 l 299 0 l 299 208 l 361 208 l 361 347 l 208 347 l 208 208 l 271 208 l 271 0 z "},"9":{"ha":639,"x_min":0,"x_max":569,"o":"m 0 0 l 0 278 l 208 278 l 208 208 l 271 208 l 271 0 l 0 0 m 271 625 l 208 625 l 208 500 l 361 500 l 361 625 l 299 625 l 299 833 l 569 833 l 569 139 l 431 0 l 299 0 l 299 208 l 361 208 l 361 333 l 0 333 l 0 694 l 139 833 l 271 833 l 271 625 z "}," ":{"ha":347,"x_min":0,"x_max":0,"o":""},"R":{"ha":742,"x_min":0,"x_max":672,"o":"m 306 486 l 417 486 l 417 625 l 306 625 l 306 833 l 486 833 l 625 694 l 625 451 l 556 382 l 603 208 l 672 208 l 672 0 l 444 0 l 368 278 l 306 278 l 306 486 m 278 0 l 0 0 l 0 208 l 69 208 l 69 625 l 0 625 l 0 833 l 278 833 l 278 0 z "},"B":{"ha":694,"x_min":0,"x_max":625,"o":"m 417 208 l 417 347 l 306 347 l 306 486 l 417 486 l 417 625 l 306 625 l 306 833 l 486 833 l 625 694 l 625 486 l 556 417 l 625 347 l 625 139 l 486 0 l 306 0 l 306 208 l 417 208 m 278 0 l 0 0 l 0 208 l 69 208 l 69 625 l 0 625 l 0 833 l 278 833 l 278 0 z "},"D":{"ha":729,"x_min":0,"x_max":660,"o":"m 306 208 l 451 208 l 451 625 l 306 625 l 306 833 l 521 833 l 660 694 l 660 139 l 521 0 l 306 0 l 306 208 m 278 0 l 0 0 l 0 208 l 69 208 l 69 625 l 0 625 l 0 833 l 278 833 l 278 0 z "},"I":{"ha":417,"x_min":0,"x_max":347,"o":"m 347 833 l 347 625 l 278 625 l 278 208 l 347 208 l 347 0 l 0 0 l 0 208 l 69 208 l 69 625 l 0 625 l 0 833 l 347 833 z "},"J":{"ha":694,"x_min":0,"x_max":625,"o":"m 292 0 l 292 208 l 347 208 l 347 625 l 278 625 l 278 833 l 625 833 l 625 625 l 556 625 l 556 139 l 417 0 l 292 0 m 264 208 l 264 0 l 139 0 l 0 139 l 0 313 l 208 313 l 208 208 l 264 208 z "},"L":{"ha":694,"x_min":0,"x_max":625,"o":"m 306 0 l 306 208 l 417 208 l 417 313 l 625 313 l 625 0 l 306 0 m 278 0 l 0 0 l 0 208 l 69 208 l 69 625 l 0 625 l 0 833 l 347 833 l 347 625 l 278 625 l 278 0 z "},"E":{"ha":694,"x_min":0,"x_max":625,"o":"m 306 486 l 417 486 l 417 347 l 306 347 l 306 486 m 278 0 l 0 0 l 0 208 l 69 208 l 69 625 l 0 625 l 0 833 l 278 833 l 278 0 m 306 208 l 417 208 l 417 313 l 625 313 l 625 0 l 306 0 l 306 208 m 306 833 l 625 833 l 625 521 l 417 521 l 417 625 l 306 625 l 306 833 z "},"F":{"ha":694,"x_min":0,"x_max":625,"o":"m 417 486 l 417 313 l 306 313 l 306 486 l 417 486 m 625 833 l 625 521 l 417 521 l 417 625 l 306 625 l 306 833 l 625 833 m 278 208 l 347 208 l 347 0 l 0 0 l 0 208 l 69 208 l 69 625 l 0 625 l 0 833 l 278 833 l 278 208 z "},"G":{"ha":660,"x_min":0,"x_max":590,"o":"m 308 208 l 382 208 l 382 313 l 278 313 l 278 465 l 590 465 l 590 0 l 308 0 l 308 208 m 308 833 l 590 833 l 590 521 l 382 521 l 382 625 l 308 625 l 308 833 m 281 0 l 281 208 l 208 208 l 208 625 l 281 625 l 281 833 l 139 833 l 0 694 l 0 139 l 139 0 l 281 0 z "},"H":{"ha":764,"x_min":0,"x_max":694,"o":"m 306 521 l 417 521 l 417 833 l 694 833 l 694 625 l 625 625 l 625 208 l 694 208 l 694 0 l 417 0 l 417 313 l 306 313 l 306 521 m 278 0 l 0 0 l 0 208 l 69 208 l 69 625 l 0 625 l 0 833 l 278 833 l 278 0 z "},"T":{"ha":764,"x_min":0,"x_max":694,"o":"m 215 833 l 215 625 l 174 625 l 174 521 l 0 521 l 0 833 l 215 833 m 479 625 l 479 833 l 694 833 l 694 521 l 521 521 l 521 625 l 479 625 m 451 833 l 451 208 l 521 208 l 521 0 l 174 0 l 174 208 l 243 208 l 243 833 l 451 833 z "},"U":{"ha":799,"x_min":0,"x_max":729,"o":"m 378 0 l 378 208 l 451 208 l 451 833 l 729 833 l 729 625 l 660 625 l 660 139 l 521 0 l 378 0 m 350 0 l 208 0 l 69 139 l 69 625 l 0 625 l 0 833 l 278 833 l 278 208 l 350 208 l 350 0 z "},"X":{"ha":736,"x_min":0,"x_max":667,"o":"m 350 663 l 444 833 l 667 833 l 667 625 l 569 625 l 469 446 l 350 663 m 569 208 l 667 208 l 667 0 l 444 0 l 97 625 l 0 625 l 0 833 l 222 833 l 569 208 m 317 171 l 222 0 l 0 0 l 0 208 l 97 208 l 197 388 l 317 171 z "},"N":{"ha":764,"x_min":0,"x_max":694,"o":"m 236 833 l 556 208 l 694 208 l 694 0 l 458 0 l 139 625 l 0 625 l 0 833 l 236 833 m 417 540 l 417 833 l 694 833 l 694 625 l 625 625 l 625 236 l 572 236 l 417 540 m 69 597 l 69 208 l 0 208 l 0 0 l 278 0 l 278 293 l 122 597 l 69 597 z "},"S":{"ha":639,"x_min":0,"x_max":569,"o":"m 299 833 l 569 833 l 569 556 l 361 556 l 361 625 l 299 625 l 299 833 m 271 0 l 0 0 l 0 278 l 208 278 l 208 208 l 271 208 l 271 0 m 299 208 l 361 208 l 361 285 l 0 396 l 0 694 l 139 833 l 271 833 l 271 625 l 208 625 l 208 549 l 569 438 l 569 139 l 431 0 l 299 0 l 299 208 z "},"K":{"ha":708,"x_min":0,"x_max":639,"o":"m 278 0 l 0 0 l 0 208 l 69 208 l 69 625 l 0 625 l 0 833 l 278 833 l 278 0 m 306 633 l 306 200 l 417 0 l 639 0 l 639 208 l 542 208 l 425 417 l 542 625 l 639 625 l 639 833 l 417 833 l 306 633 z "},"V":{"ha":764,"x_min":0,"x_max":694,"o":"m 410 0 l 363 300 l 447 833 l 694 833 l 694 625 l 625 625 l 526 0 l 410 0 m 381 0 l 168 0 l 69 625 l 0 625 l 0 833 l 247 833 l 381 0 z "},"P":{"ha":694,"x_min":0,"x_max":625,"o":"m 278 208 l 347 208 l 347 0 l 0 0 l 0 208 l 69 208 l 69 625 l 0 625 l 0 833 l 278 833 l 278 208 m 306 486 l 417 486 l 417 625 l 306 625 l 306 833 l 486 833 l 625 694 l 625 417 l 486 278 l 306 278 l 306 486 z "},"a":{"ha":764,"x_min":0,"x_max":694,"o":"m 247 0 l 0 0 l 0 208 l 69 208 l 168 833 l 285 833 l 333 535 l 247 0 m 336 375 l 388 375 l 314 833 l 526 833 l 625 208 l 694 208 l 694 0 l 447 0 l 414 208 l 310 208 l 336 375 z "},"c":{"ha":660,"x_min":0,"x_max":590,"o":"m 308 625 l 308 833 l 590 833 l 590 521 l 382 521 l 382 625 l 308 625 m 308 208 l 308 0 l 590 0 l 590 313 l 382 313 l 382 208 l 308 208 m 281 0 l 281 208 l 208 208 l 208 625 l 281 625 l 281 833 l 139 833 l 0 694 l 0 139 l 139 0 l 281 0 z "},"d":{"ha":729,"x_min":0,"x_max":660,"o":"m 306 208 l 451 208 l 451 625 l 306 625 l 306 833 l 521 833 l 660 694 l 660 139 l 521 0 l 306 0 l 306 208 m 278 0 l 0 0 l 0 208 l 69 208 l 69 625 l 0 625 l 0 833 l 278 833 l 278 0 z "},"e":{"ha":694,"x_min":0,"x_max":625,"o":"m 306 486 l 417 486 l 417 347 l 306 347 l 306 486 m 278 0 l 0 0 l 0 208 l 69 208 l 69 625 l 0 625 l 0 833 l 278 833 l 278 0 m 306 208 l 417 208 l 417 313 l 625 313 l 625 0 l 306 0 l 306 208 m 306 833 l 625 833 l 625 521 l 417 521 l 417 625 l 306 625 l 306 833 z "},"f":{"ha":694,"x_min":0,"x_max":625,"o":"m 417 486 l 417 313 l 306 313 l 306 486 l 417 486 m 625 833 l 625 521 l 417 521 l 417 625 l 306 625 l 306 833 l 625 833 m 278 208 l 347 208 l 347 0 l 0 0 l 0 208 l 69 208 l 69 625 l 0 625 l 0 833 l 278 833 l 278 208 z "},"g":{"ha":660,"x_min":0,"x_max":590,"o":"m 308 208 l 382 208 l 382 313 l 278 313 l 278 465 l 590 465 l 590 0 l 308 0 l 308 208 m 308 833 l 590 833 l 590 521 l 382 521 l 382 625 l 308 625 l 308 833 m 281 0 l 281 208 l 208 208 l 208 625 l 281 625 l 281 833 l 139 833 l 0 694 l 0 139 l 139 0 l 281 0 z "},"h":{"ha":764,"x_min":0,"x_max":694,"o":"m 306 521 l 417 521 l 417 833 l 694 833 l 694 625 l 625 625 l 625 208 l 694 208 l 694 0 l 417 0 l 417 313 l 306 313 l 306 521 m 278 0 l 0 0 l 0 208 l 69 208 l 69 625 l 0 625 l 0 833 l 278 833 l 278 0 z "},"i":{"ha":417,"x_min":0,"x_max":347,"o":"m 347 833 l 347 625 l 278 625 l 278 208 l 347 208 l 347 0 l 0 0 l 0 208 l 69 208 l 69 625 l 0 625 l 0 833 l 347 833 z "},"j":{"ha":694,"x_min":0,"x_max":625,"o":"m 292 0 l 292 208 l 347 208 l 347 625 l 278 625 l 278 833 l 625 833 l 625 625 l 556 625 l 556 139 l 417 0 l 292 0 m 264 208 l 264 0 l 139 0 l 0 139 l 0 313 l 208 313 l 208 208 l 264 208 z "},"k":{"ha":708,"x_min":0,"x_max":639,"o":"m 278 0 l 0 0 l 0 208 l 69 208 l 69 625 l 0 625 l 0 833 l 278 833 l 278 0 m 306 633 l 306 200 l 417 0 l 639 0 l 639 208 l 542 208 l 425 417 l 542 625 l 639 625 l 639 833 l 417 833 l 306 633 z "},"l":{"ha":694,"x_min":0,"x_max":625,"o":"m 306 0 l 306 208 l 417 208 l 417 313 l 625 313 l 625 0 l 306 0 m 278 0 l 0 0 l 0 208 l 69 208 l 69 625 l 0 625 l 0 833 l 347 833 l 347 625 l 278 625 l 278 0 z "},"m":{"ha":903,"x_min":0,"x_max":833,"o":"m 417 146 l 151 625 l 0 625 l 0 833 l 236 833 l 518 328 l 417 146 m 433 538 l 597 833 l 833 833 l 833 625 l 764 625 l 764 208 l 833 208 l 833 0 l 556 0 l 556 317 l 433 538 m 135 597 l 278 338 l 278 0 l 0 0 l 0 208 l 69 208 l 69 597 l 135 597 z "},"n":{"ha":764,"x_min":0,"x_max":694,"o":"m 236 833 l 556 208 l 694 208 l 694 0 l 458 0 l 139 625 l 0 625 l 0 833 l 236 833 m 417 540 l 417 833 l 694 833 l 694 625 l 625 625 l 625 236 l 572 236 l 417 540 m 69 597 l 69 208 l 0 208 l 0 0 l 278 0 l 278 293 l 122 597 l 69 597 z "},"o":{"ha":660,"x_min":0,"x_max":590,"o":"m 451 833 l 590 694 l 590 139 l 451 0 l 308 0 l 308 208 l 382 208 l 382 625 l 308 625 l 308 833 l 451 833 m 139 0 l 0 139 l 0 694 l 139 833 l 281 833 l 281 625 l 208 625 l 208 208 l 281 208 l 281 0 l 139 0 z "},"p":{"ha":694,"x_min":0,"x_max":625,"o":"m 278 208 l 347 208 l 347 0 l 0 0 l 0 208 l 69 208 l 69 625 l 0 625 l 0 833 l 278 833 l 278 208 m 306 486 l 417 486 l 417 625 l 306 625 l 306 833 l 486 833 l 625 694 l 625 417 l 486 278 l 306 278 l 306 486 z "},"r":{"ha":742,"x_min":0,"x_max":672,"o":"m 306 486 l 417 486 l 417 625 l 306 625 l 306 833 l 486 833 l 625 694 l 625 451 l 556 382 l 603 208 l 672 208 l 672 0 l 444 0 l 368 278 l 306 278 l 306 486 m 278 0 l 0 0 l 0 208 l 69 208 l 69 625 l 0 625 l 0 833 l 278 833 l 278 0 z "},"s":{"ha":639,"x_min":0,"x_max":569,"o":"m 299 833 l 569 833 l 569 556 l 361 556 l 361 625 l 299 625 l 299 833 m 271 0 l 0 0 l 0 278 l 208 278 l 208 208 l 271 208 l 271 0 m 299 208 l 361 208 l 361 285 l 0 396 l 0 694 l 139 833 l 271 833 l 271 625 l 208 625 l 208 549 l 569 438 l 569 139 l 431 0 l 299 0 l 299 208 z "},"t":{"ha":764,"x_min":0,"x_max":694,"o":"m 215 833 l 215 625 l 174 625 l 174 521 l 0 521 l 0 833 l 215 833 m 479 625 l 479 833 l 694 833 l 694 521 l 521 521 l 521 625 l 479 625 m 451 833 l 451 208 l 521 208 l 521 0 l 174 0 l 174 208 l 243 208 l 243 833 l 451 833 z "},"u":{"ha":799,"x_min":0,"x_max":729,"o":"m 378 0 l 378 208 l 451 208 l 451 833 l 729 833 l 729 625 l 660 625 l 660 139 l 521 0 l 378 0 m 350 0 l 208 0 l 69 139 l 69 625 l 0 625 l 0 833 l 278 833 l 278 208 l 350 208 l 350 0 z "},"v":{"ha":764,"x_min":0,"x_max":694,"o":"m 410 0 l 363 300 l 447 833 l 694 833 l 694 625 l 625 625 l 526 0 l 410 0 m 381 0 l 168 0 l 69 625 l 0 625 l 0 833 l 247 833 l 381 0 z "},"x":{"ha":736,"x_min":0,"x_max":667,"o":"m 350 663 l 444 833 l 667 833 l 667 625 l 569 625 l 469 446 l 350 663 m 569 208 l 667 208 l 667 0 l 444 0 l 97 625 l 0 625 l 0 833 l 222 833 l 569 208 m 317 171 l 222 0 l 0 0 l 0 208 l 97 208 l 197 388 l 317 171 z "},"z":{"ha":667,"x_min":0,"x_max":597,"o":"m 101 0 l 279 208 l 389 208 l 389 278 l 597 278 l 597 0 l 101 0 m 496 833 l 318 625 l 208 625 l 208 556 l 0 556 l 0 833 l 496 833 m 64 0 l 0 0 l 0 208 l 533 833 l 597 833 l 597 625 l 64 0 z "},"Y":{"ha":736,"x_min":0,"x_max":667,"o":"m 438 446 l 438 208 l 507 208 l 507 0 l 160 0 l 160 208 l 229 208 l 229 386 l 97 625 l 0 625 l 0 833 l 222 833 l 438 446 m 469 446 l 569 625 l 667 625 l 667 833 l 444 833 l 350 663 l 469 446 z "},"y":{"ha":736,"x_min":0,"x_max":667,"o":"m 438 446 l 438 208 l 507 208 l 507 0 l 160 0 l 160 208 l 229 208 l 229 386 l 97 625 l 0 625 l 0 833 l 222 833 l 438 446 m 469 446 l 569 625 l 667 625 l 667 833 l 444 833 l 350 663 l 469 446 z "},"Q":{"ha":660,"x_min":0,"x_max":664,"o":"m 281 0 l 139 0 l 0 139 l 0 694 l 139 833 l 281 833 l 281 625 l 208 625 l 208 208 l 281 208 l 281 0 m 308 208 l 382 208 l 382 625 l 308 625 l 308 833 l 451 833 l 590 694 l 590 147 l 664 74 l 517 -74 l 443 0 l 308 0 l 308 208 z "},"q":{"ha":660,"x_min":0,"x_max":664,"o":"m 281 0 l 139 0 l 0 139 l 0 694 l 139 833 l 281 833 l 281 625 l 208 625 l 208 208 l 281 208 l 281 0 m 308 208 l 382 208 l 382 625 l 308 625 l 308 833 l 451 833 l 590 694 l 590 147 l 664 74 l 517 -74 l 443 0 l 308 0 l 308 208 z "},"W":{"ha":1097,"x_min":0,"x_max":1028,"o":"m 769 0 l 726 342 l 772 833 l 1028 833 l 1028 625 l 958 625 l 885 0 l 769 0 m 740 0 l 579 0 l 514 556 l 449 0 l 363 0 l 331 339 l 394 833 l 633 833 l 740 0 m 333 0 l 143 0 l 69 625 l 0 625 l 0 833 l 256 833 l 333 0 z "},"w":{"ha":1097,"x_min":0,"x_max":1028,"o":"m 769 0 l 726 342 l 772 833 l 1028 833 l 1028 625 l 958 625 l 885 0 l 769 0 m 740 0 l 579 0 l 514 556 l 449 0 l 363 0 l 331 339 l 394 833 l 633 833 l 740 0 m 333 0 l 143 0 l 69 625 l 0 625 l 0 833 l 256 833 l 333 0 z "},"Z":{"ha":667,"x_min":0,"x_max":597,"o":"m 101 0 l 279 208 l 389 208 l 389 278 l 597 278 l 597 0 l 101 0 m 496 833 l 318 625 l 208 625 l 208 556 l 0 556 l 0 833 l 496 833 m 64 0 l 0 0 l 0 208 l 533 833 l 597 833 l 597 625 l 64 0 z "},"M":{"ha":903,"x_min":0,"x_max":833,"o":"m 417 146 l 151 625 l 0 625 l 0 833 l 236 833 l 518 328 l 417 146 m 433 538 l 597 833 l 833 833 l 833 625 l 764 625 l 764 208 l 833 208 l 833 0 l 556 0 l 556 317 l 433 538 m 135 597 l 278 338 l 278 0 l 0 0 l 0 208 l 69 208 l 69 597 l 135 597 z "},"´":{"ha":694,"x_min":139,"x_max":508,"o":"m 139 1026 l 478 1103 l 508 932 l 164 889 l 139 1026 z "},"`":{"ha":694,"x_min":139,"x_max":508,"o":"m 483 903 l 139 946 l 169 1117 l 508 1040 l 483 903 z "},"¨":{"ha":694,"x_min":104,"x_max":521,"o":"m 104 1076 l 278 1076 l 278 903 l 104 903 l 104 1076 m 347 1076 l 521 1076 l 521 903 l 347 903 l 347 1076 z "},"ˆ":{"ha":694,"x_min":104,"x_max":521,"o":"m 313 1117 l 521 1040 l 496 903 l 313 953 l 129 903 l 104 1040 l 313 1117 z "},"˘":{"ha":694,"x_min":104,"x_max":521,"o":"m 104 979 l 129 1117 l 313 1067 l 496 1117 l 521 979 l 313 903 l 104 979 z "},"ˇ":{"ha":694,"x_min":104,"x_max":521,"o":"m 104 979 l 129 1117 l 313 1067 l 496 1117 l 521 979 l 313 903 l 104 979 z "},"ð":{"ha":729,"x_min":0,"x_max":660,"o":"m 306 208 l 451 208 l 451 625 l 306 625 l 306 833 l 521 833 l 660 694 l 660 139 l 521 0 l 306 0 l 306 208 m 278 333 l 278 0 l 0 0 l 0 208 l 69 208 l 69 333 l 0 333 l 0 500 l 69 500 l 69 625 l 0 625 l 0 833 l 278 833 l 278 500 l 347 500 l 347 333 l 278 333 z "},"þ":{"ha":694,"x_min":0,"x_max":625,"o":"m 306 486 l 306 694 l 486 694 l 625 556 l 625 278 l 486 139 l 306 139 l 306 347 l 417 347 l 417 486 l 306 486 m 278 0 l 0 0 l 0 208 l 69 208 l 69 625 l 0 625 l 0 833 l 278 833 l 278 0 z "},"˜":{"ha":764,"x_min":126,"x_max":568,"o":"m 568 979 l 464 903 l 256 951 l 151 903 l 126 1040 l 231 1117 l 439 1068 l 543 1117 l 568 979 z "},"æ":{"ha":1028,"x_min":0,"x_max":958,"o":"m 376 625 l 410 833 l 611 833 l 611 0 l 403 0 l 403 208 l 310 208 l 336 375 l 403 375 l 403 625 l 376 625 m 247 0 l 0 0 l 0 208 l 69 208 l 168 833 l 381 833 l 247 0 m 639 486 l 750 486 l 750 347 l 639 347 l 639 486 m 639 208 l 750 208 l 750 313 l 958 313 l 958 0 l 639 0 l 639 208 m 639 833 l 958 833 l 958 521 l 750 521 l 750 625 l 639 625 l 639 833 z "},"Æ":{"ha":1028,"x_min":0,"x_max":958,"o":"m 376 625 l 410 833 l 611 833 l 611 0 l 403 0 l 403 208 l 310 208 l 336 375 l 403 375 l 403 625 l 376 625 m 247 0 l 0 0 l 0 208 l 69 208 l 168 833 l 381 833 l 247 0 m 639 486 l 750 486 l 750 347 l 639 347 l 639 486 m 639 208 l 750 208 l 750 313 l 958 313 l 958 0 l 639 0 l 639 208 m 639 833 l 958 833 l 958 521 l 750 521 l 750 625 l 639 625 l 639 833 z "},"А":{"ha":764,"x_min":0,"x_max":694,"o":"m 247 0 l 0 0 l 0 208 l 69 208 l 168 833 l 285 833 l 333 535 l 247 0 m 336 375 l 388 375 l 314 833 l 526 833 l 625 208 l 694 208 l 694 0 l 447 0 l 414 208 l 310 208 l 336 375 z "},"В":{"ha":694,"x_min":0,"x_max":625,"o":"m 417 208 l 417 347 l 306 347 l 306 486 l 417 486 l 417 625 l 306 625 l 306 833 l 486 833 l 625 694 l 625 486 l 556 417 l 625 347 l 625 139 l 486 0 l 306 0 l 306 208 l 417 208 m 278 0 l 0 0 l 0 208 l 69 208 l 69 625 l 0 625 l 0 833 l 278 833 l 278 0 z "},"Е":{"ha":694,"x_min":0,"x_max":625,"o":"m 306 486 l 417 486 l 417 347 l 306 347 l 306 486 m 278 0 l 0 0 l 0 208 l 69 208 l 69 625 l 0 625 l 0 833 l 278 833 l 278 0 m 306 208 l 417 208 l 417 313 l 625 313 l 625 0 l 306 0 l 306 208 m 306 833 l 625 833 l 625 521 l 417 521 l 417 625 l 306 625 l 306 833 z "},"И":{"ha":764,"x_min":0,"x_max":694,"o":"m 694 833 l 694 625 l 556 625 l 236 0 l 0 0 l 0 208 l 139 208 l 458 833 l 694 833 m 122 236 l 69 236 l 69 625 l 0 625 l 0 833 l 278 833 l 278 540 l 122 236 m 625 597 l 625 208 l 694 208 l 694 0 l 417 0 l 417 293 l 572 597 l 625 597 z "},"К":{"ha":708,"x_min":0,"x_max":639,"o":"m 278 0 l 0 0 l 0 208 l 69 208 l 69 625 l 0 625 l 0 833 l 278 833 l 278 0 m 306 633 l 306 200 l 417 0 l 639 0 l 639 208 l 542 208 l 425 417 l 542 625 l 639 625 l 639 833 l 417 833 l 306 633 z "},"М":{"ha":903,"x_min":0,"x_max":833,"o":"m 417 146 l 151 625 l 0 625 l 0 833 l 236 833 l 518 328 l 417 146 m 433 538 l 597 833 l 833 833 l 833 625 l 764 625 l 764 208 l 833 208 l 833 0 l 556 0 l 556 317 l 433 538 m 135 597 l 278 338 l 278 0 l 0 0 l 0 208 l 69 208 l 69 597 l 135 597 z "},"Н":{"ha":764,"x_min":0,"x_max":694,"o":"m 306 521 l 417 521 l 417 833 l 694 833 l 694 625 l 625 625 l 625 208 l 694 208 l 694 0 l 417 0 l 417 313 l 306 313 l 306 521 m 278 0 l 0 0 l 0 208 l 69 208 l 69 625 l 0 625 l 0 833 l 278 833 l 278 0 z "},"О":{"ha":660,"x_min":0,"x_max":590,"o":"m 451 833 l 590 694 l 590 139 l 451 0 l 308 0 l 308 208 l 382 208 l 382 625 l 308 625 l 308 833 l 451 833 m 139 0 l 0 139 l 0 694 l 139 833 l 281 833 l 281 625 l 208 625 l 208 208 l 281 208 l 281 0 l 139 0 z "},"Р":{"ha":694,"x_min":0,"x_max":625,"o":"m 278 208 l 347 208 l 347 0 l 0 0 l 0 208 l 69 208 l 69 625 l 0 625 l 0 833 l 278 833 l 278 208 m 306 486 l 417 486 l 417 625 l 306 625 l 306 833 l 486 833 l 625 694 l 625 417 l 486 278 l 306 278 l 306 486 z "},"С":{"ha":660,"x_min":0,"x_max":590,"o":"m 308 625 l 308 833 l 590 833 l 590 521 l 382 521 l 382 625 l 308 625 m 308 208 l 308 0 l 590 0 l 590 313 l 382 313 l 382 208 l 308 208 m 281 0 l 281 208 l 208 208 l 208 625 l 281 625 l 281 833 l 139 833 l 0 694 l 0 139 l 139 0 l 281 0 z "},"Т":{"ha":764,"x_min":0,"x_max":694,"o":"m 215 833 l 215 625 l 174 625 l 174 521 l 0 521 l 0 833 l 215 833 m 479 625 l 479 833 l 694 833 l 694 521 l 521 521 l 521 625 l 479 625 m 451 833 l 451 208 l 521 208 l 521 0 l 174 0 l 174 208 l 243 208 l 243 833 l 451 833 z "},"У":{"ha":736,"x_min":0,"x_max":667,"o":"m 438 446 l 438 208 l 507 208 l 507 0 l 160 0 l 160 208 l 229 208 l 229 386 l 97 625 l 0 625 l 0 833 l 222 833 l 438 446 m 469 446 l 569 625 l 667 625 l 667 833 l 444 833 l 350 663 l 469 446 z "},"Х":{"ha":736,"x_min":0,"x_max":667,"o":"m 350 663 l 444 833 l 667 833 l 667 625 l 569 625 l 469 446 l 350 663 m 569 208 l 667 208 l 667 0 l 444 0 l 97 625 l 0 625 l 0 833 l 222 833 l 569 208 m 317 171 l 222 0 l 0 0 l 0 208 l 97 208 l 197 388 l 317 171 z "},"Б":{"ha":694,"x_min":0,"x_max":625,"o":"m 306 208 l 417 208 l 417 347 l 306 347 l 306 556 l 486 556 l 625 417 l 625 139 l 486 0 l 306 0 l 306 208 m 0 0 l 0 208 l 69 208 l 69 625 l 0 625 l 0 833 l 278 833 l 278 0 l 0 0 m 306 833 l 625 833 l 625 625 l 306 625 l 306 833 z "},"Г":{"ha":694,"x_min":0,"x_max":625,"o":"m 278 208 l 347 208 l 347 0 l 0 0 l 0 208 l 69 208 l 69 625 l 0 625 l 0 833 l 278 833 l 278 208 m 306 833 l 625 833 l 625 521 l 417 521 l 417 625 l 306 625 l 306 833 z "},"Ж":{"ha":972,"x_min":0,"x_max":903,"o":"m 208 0 l 0 0 l 0 208 l 83 208 l 200 417 l 83 625 l 0 625 l 0 833 l 208 833 l 319 633 l 319 200 l 208 0 m 347 833 l 556 833 l 556 0 l 347 0 l 347 833 m 694 833 l 903 833 l 903 625 l 819 625 l 703 417 l 819 208 l 903 208 l 903 0 l 694 0 l 583 200 l 583 633 l 694 833 z "},"Л":{"ha":799,"x_min":0,"x_max":729,"o":"m 424 625 l 347 625 l 247 0 l 0 0 l 0 208 l 69 208 l 168 833 l 424 833 l 424 625 m 451 833 l 729 833 l 729 625 l 660 625 l 660 208 l 729 208 l 729 0 l 382 0 l 382 208 l 451 208 l 451 833 z "},"П":{"ha":764,"x_min":0,"x_max":694,"o":"m 278 0 l 0 0 l 0 208 l 69 208 l 69 625 l 0 625 l 0 833 l 278 833 l 278 0 m 306 833 l 694 833 l 694 625 l 625 625 l 625 208 l 694 208 l 694 0 l 417 0 l 417 625 l 306 625 l 306 833 z "},"Ь":{"ha":694,"x_min":0,"x_max":625,"o":"m 0 0 l 0 208 l 69 208 l 69 625 l 0 625 l 0 833 l 347 833 l 347 625 l 278 625 l 278 0 l 0 0 m 417 208 l 417 347 l 306 347 l 306 556 l 486 556 l 625 417 l 625 139 l 486 0 l 306 0 l 306 208 l 417 208 z "},"Ъ":{"ha":833,"x_min":0,"x_max":764,"o":"m 139 0 l 139 208 l 208 208 l 208 833 l 486 833 l 486 625 l 417 625 l 417 0 l 139 0 m 556 208 l 556 347 l 444 347 l 444 556 l 625 556 l 764 417 l 764 139 l 625 0 l 444 0 l 444 208 l 556 208 m 0 625 l 0 833 l 181 833 l 181 625 l 0 625 z "},"Ы":{"ha":1111,"x_min":0,"x_max":1042,"o":"m 0 0 l 0 208 l 69 208 l 69 625 l 0 625 l 0 833 l 347 833 l 347 625 l 278 625 l 278 0 l 0 0 m 417 208 l 417 347 l 306 347 l 306 556 l 486 556 l 625 417 l 625 139 l 486 0 l 306 0 l 306 208 l 417 208 m 1042 833 l 1042 625 l 972 625 l 972 208 l 1042 208 l 1042 0 l 694 0 l 694 208 l 764 208 l 764 625 l 694 625 l 694 833 l 1042 833 z "},"Я":{"ha":742,"x_min":0,"x_max":672,"o":"m 367 278 l 304 278 l 228 0 l 0 0 l 0 208 l 69 208 l 117 382 l 47 451 l 47 694 l 186 833 l 367 833 l 367 625 l 256 625 l 256 486 l 367 486 l 367 278 m 394 833 l 672 833 l 672 625 l 603 625 l 603 208 l 672 208 l 672 0 l 394 0 l 394 833 z "},"Ю":{"ha":1007,"x_min":0,"x_max":938,"o":"m 278 313 l 278 0 l 0 0 l 0 208 l 69 208 l 69 625 l 0 625 l 0 833 l 278 833 l 278 521 l 319 521 l 319 313 l 278 313 m 799 833 l 938 694 l 938 139 l 799 0 l 656 0 l 656 208 l 729 208 l 729 625 l 656 625 l 656 833 l 799 833 m 486 0 l 347 139 l 347 694 l 486 833 l 628 833 l 628 625 l 556 625 l 556 208 l 628 208 l 628 0 l 486 0 z "},"ю":{"ha":1007,"x_min":0,"x_max":938,"o":"m 278 313 l 278 0 l 0 0 l 0 208 l 69 208 l 69 625 l 0 625 l 0 833 l 278 833 l 278 521 l 319 521 l 319 313 l 278 313 m 799 833 l 938 694 l 938 139 l 799 0 l 656 0 l 656 208 l 729 208 l 729 625 l 656 625 l 656 833 l 799 833 m 486 0 l 347 139 l 347 694 l 486 833 l 628 833 l 628 625 l 556 625 l 556 208 l 628 208 l 628 0 l 486 0 z "},"Њ":{"ha":1042,"x_min":0,"x_max":972,"o":"m 278 0 l 0 0 l 0 208 l 69 208 l 69 625 l 0 625 l 0 833 l 278 833 l 278 0 m 417 0 l 417 313 l 306 313 l 306 521 l 417 521 l 417 833 l 694 833 l 694 625 l 625 625 l 625 0 l 417 0 m 764 208 l 764 347 l 653 347 l 653 556 l 833 556 l 972 417 l 972 139 l 833 0 l 653 0 l 653 208 l 764 208 z "},"Д":{"ha":799,"x_min":0,"x_max":729,"o":"m 451 833 l 729 833 l 729 625 l 660 625 l 660 208 l 729 208 l 729 -69 l 521 -69 l 521 0 l 451 0 l 451 833 m 208 0 l 208 -69 l 0 -69 l 0 208 l 69 208 l 168 833 l 424 833 l 424 625 l 347 625 l 281 208 l 424 208 l 424 0 l 208 0 z "},"З":{"ha":639,"x_min":0,"x_max":569,"o":"m 271 625 l 208 625 l 208 521 l 0 521 l 0 694 l 139 833 l 271 833 l 271 625 m 271 0 l 139 0 l 0 139 l 0 313 l 208 313 l 208 208 l 271 208 l 271 0 m 361 208 l 361 347 l 208 347 l 208 486 l 361 486 l 361 625 l 299 625 l 299 833 l 431 833 l 569 694 l 569 486 l 500 417 l 569 347 l 569 139 l 431 0 l 299 0 l 299 208 l 361 208 z "},"Ф":{"ha":833,"x_min":0,"x_max":764,"o":"m 250 104 l 139 104 l 0 243 l 0 590 l 139 729 l 250 729 l 250 521 l 208 521 l 208 313 l 250 313 l 250 104 m 278 833 l 486 833 l 486 0 l 278 0 l 278 833 m 556 313 l 556 521 l 514 521 l 514 729 l 625 729 l 764 590 l 764 243 l 625 104 l 514 104 l 514 313 l 556 313 z "},"ф":{"ha":833,"x_min":0,"x_max":764,"o":"m 250 104 l 139 104 l 0 243 l 0 590 l 139 729 l 250 729 l 250 521 l 208 521 l 208 313 l 250 313 l 250 104 m 278 833 l 486 833 l 486 0 l 278 0 l 278 833 m 556 313 l 556 521 l 514 521 l 514 729 l 625 729 l 764 590 l 764 243 l 625 104 l 514 104 l 514 313 l 556 313 z "},"Й":{"ha":764,"x_min":0,"x_max":694,"o":"m 139 965 l 164 1103 l 347 1053 l 531 1103 l 556 965 l 347 889 l 139 965 m 694 833 l 694 625 l 556 625 l 236 0 l 0 0 l 0 208 l 139 208 l 458 833 l 694 833 m 122 236 l 69 236 l 69 625 l 0 625 l 0 833 l 278 833 l 278 540 l 122 236 m 625 597 l 625 208 l 694 208 l 694 0 l 417 0 l 417 293 l 572 597 l 625 597 z "},"Џ":{"ha":764,"x_min":0,"x_max":694,"o":"m 361 0 l 361 208 l 417 208 l 417 833 l 694 833 l 694 625 l 625 625 l 625 208 l 694 208 l 694 0 l 361 0 m 451 -28 l 451 -69 l 243 -69 l 243 -28 l 451 -28 m 333 0 l 0 0 l 0 208 l 69 208 l 69 625 l 0 625 l 0 833 l 278 833 l 278 208 l 333 208 l 333 0 z "},"Э":{"ha":639,"x_min":0,"x_max":569,"o":"m 271 625 l 208 625 l 208 521 l 0 521 l 0 694 l 139 833 l 271 833 l 271 625 m 271 0 l 139 0 l 0 139 l 0 313 l 208 313 l 208 208 l 271 208 l 271 0 m 361 208 l 361 347 l 208 347 l 208 486 l 361 486 l 361 625 l 299 625 l 299 833 l 431 833 l 569 694 l 569 139 l 431 0 l 299 0 l 299 208 l 361 208 z "},"Ц":{"ha":764,"x_min":0,"x_max":694,"o":"m 417 0 l 417 833 l 694 833 l 694 625 l 625 625 l 625 208 l 694 208 l 694 -69 l 486 -69 l 486 0 l 417 0 m 389 0 l 0 0 l 0 208 l 69 208 l 69 625 l 0 625 l 0 833 l 278 833 l 278 208 l 389 208 l 389 0 z "},"Ш":{"ha":1111,"x_min":0,"x_max":1042,"o":"m 653 0 l 653 208 l 764 208 l 764 833 l 1042 833 l 1042 625 l 972 625 l 972 208 l 1042 208 l 1042 0 l 653 0 m 625 0 l 417 0 l 417 833 l 625 833 l 625 0 m 389 0 l 0 0 l 0 208 l 69 208 l 69 625 l 0 625 l 0 833 l 278 833 l 278 208 l 389 208 l 389 0 z "},"Щ":{"ha":1111,"x_min":0,"x_max":1042,"o":"m 653 0 l 653 208 l 764 208 l 764 833 l 1042 833 l 1042 625 l 972 625 l 972 208 l 1042 208 l 1042 -69 l 833 -69 l 833 0 l 653 0 m 625 0 l 417 0 l 417 833 l 625 833 l 625 0 m 389 0 l 0 0 l 0 208 l 69 208 l 69 625 l 0 625 l 0 833 l 278 833 l 278 208 l 389 208 l 389 0 z "},"œ":{"ha":1007,"x_min":0,"x_max":938,"o":"m 281 0 l 139 0 l 0 139 l 0 694 l 139 833 l 281 833 l 281 625 l 208 625 l 208 208 l 281 208 l 281 0 m 618 486 l 729 486 l 729 347 l 618 347 l 618 486 m 590 0 l 308 0 l 308 208 l 382 208 l 382 625 l 308 625 l 308 833 l 590 833 l 590 0 m 618 208 l 729 208 l 729 313 l 938 313 l 938 0 l 618 0 l 618 208 m 618 833 l 938 833 l 938 521 l 729 521 l 729 625 l 618 625 l 618 833 z "},"Œ":{"ha":1007,"x_min":0,"x_max":938,"o":"m 281 0 l 139 0 l 0 139 l 0 694 l 139 833 l 281 833 l 281 625 l 208 625 l 208 208 l 281 208 l 281 0 m 618 486 l 729 486 l 729 347 l 618 347 l 618 486 m 590 0 l 308 0 l 308 208 l 382 208 l 382 625 l 308 625 l 308 833 l 590 833 l 590 0 m 618 208 l 729 208 l 729 313 l 938 313 l 938 0 l 618 0 l 618 208 m 618 833 l 938 833 l 938 521 l 729 521 l 729 625 l 618 625 l 618 833 z "},"Á":{"ha":764,"x_min":0,"x_max":694,"o":"m 247 0 l 0 0 l 0 208 l 69 208 l 168 833 l 285 833 l 333 535 l 247 0 m 336 375 l 388 375 l 314 833 l 526 833 l 625 208 l 694 208 l 694 0 l 447 0 l 414 208 l 310 208 l 336 375 m 174 1026 l 543 1103 l 576 932 l 201 889 l 174 1026 z "},"Ă":{"ha":764,"x_min":0,"x_max":694,"o":"m 247 0 l 0 0 l 0 208 l 69 208 l 168 833 l 285 833 l 333 535 l 247 0 m 336 375 l 388 375 l 314 833 l 526 833 l 625 208 l 694 208 l 694 0 l 447 0 l 414 208 l 310 208 l 336 375 m 139 954 l 164 1092 l 347 1042 l 531 1092 l 556 954 l 347 878 l 139 954 z "},"Â":{"ha":764,"x_min":0,"x_max":694,"o":"m 247 0 l 0 0 l 0 208 l 69 208 l 168 833 l 285 833 l 333 535 l 247 0 m 336 375 l 388 375 l 314 833 l 526 833 l 625 208 l 694 208 l 694 0 l 447 0 l 414 208 l 310 208 l 336 375 m 347 1104 l 564 1028 l 538 891 l 347 941 l 156 891 l 130 1028 l 347 1104 z "},"À":{"ha":764,"x_min":0,"x_max":694,"o":"m 247 0 l 0 0 l 0 208 l 69 208 l 168 833 l 285 833 l 333 535 l 247 0 m 336 375 l 388 375 l 314 833 l 526 833 l 625 208 l 694 208 l 694 0 l 447 0 l 414 208 l 310 208 l 336 375 m 496 892 l 151 935 l 182 1106 l 521 1029 l 496 892 z "},"Ä":{"ha":764,"x_min":0,"x_max":694,"o":"m 247 0 l 0 0 l 0 208 l 69 208 l 168 833 l 285 833 l 333 535 l 247 0 m 336 375 l 388 375 l 314 833 l 526 833 l 625 208 l 694 208 l 694 0 l 447 0 l 414 208 l 310 208 l 336 375 m 139 1065 l 313 1065 l 313 892 l 139 892 l 139 1065 m 382 1065 l 556 1065 l 556 892 l 382 892 l 382 1065 z "},"¯":{"ha":694,"x_min":104,"x_max":521,"o":"m 521 1056 l 521 903 l 104 903 l 104 1056 l 521 1056 z "},"Ā":{"ha":764,"x_min":0,"x_max":694,"o":"m 247 0 l 0 0 l 0 208 l 69 208 l 168 833 l 285 833 l 333 535 l 247 0 m 336 375 l 388 375 l 314 833 l 526 833 l 625 208 l 694 208 l 694 0 l 447 0 l 414 208 l 310 208 l 336 375 m 556 1044 l 556 892 l 139 892 l 139 1044 l 556 1044 z "},"Ã":{"ha":764,"x_min":0,"x_max":694,"o":"m 247 0 l 0 0 l 0 208 l 69 208 l 168 833 l 285 833 l 333 535 l 247 0 m 336 375 l 388 375 l 314 833 l 526 833 l 625 208 l 694 208 l 694 0 l 447 0 l 414 208 l 310 208 l 336 375 m 568 968 l 464 892 l 256 940 l 151 892 l 126 1029 l 231 1106 l 439 1057 l 543 1106 l 568 968 z "},"Ą":{"ha":764,"x_min":0,"x_max":694,"o":"m 447 0 l 414 208 l 310 208 l 336 375 l 388 375 l 314 833 l 526 833 l 625 208 l 694 208 l 694 0 l 447 0 m 626 -28 l 599 -83 l 682 -83 l 682 -194 l 460 -194 l 460 -83 l 488 -28 l 626 -28 m 247 0 l 0 0 l 0 208 l 69 208 l 168 833 l 285 833 l 333 535 l 247 0 z "},"˚":{"ha":1157,"x_min":208,"x_max":486,"o":"m 278 875 l 208 944 l 208 1083 l 278 1153 l 417 1153 l 486 1083 l 486 944 l 417 875 l 278 875 m 313 979 l 382 979 l 382 1049 l 313 1049 l 313 979 z "},"Å":{"ha":764,"x_min":0,"x_max":694,"o":"m 247 0 l 0 0 l 0 208 l 69 208 l 168 833 l 285 833 l 333 535 l 247 0 m 336 375 l 388 375 l 314 833 l 526 833 l 625 208 l 694 208 l 694 0 l 447 0 l 414 208 l 310 208 l 336 375 m 278 875 l 208 944 l 208 1083 l 278 1153 l 417 1153 l 486 1083 l 486 944 l 417 875 l 278 875 m 313 979 l 382 979 l 382 1049 l 313 1049 l 313 979 z "},"˙":{"ha":694,"x_min":313,"x_max":486,"o":"m 313 1076 l 486 1076 l 486 903 l 313 903 l 313 1076 z "},"Ć":{"ha":660,"x_min":0,"x_max":590,"o":"m 308 625 l 308 833 l 590 833 l 590 521 l 382 521 l 382 625 l 308 625 m 308 208 l 308 0 l 590 0 l 590 313 l 382 313 l 382 208 l 308 208 m 281 0 l 281 208 l 208 208 l 208 625 l 281 625 l 281 833 l 139 833 l 0 694 l 0 139 l 139 0 l 281 0 m 125 1026 l 464 1103 l 494 932 l 150 889 l 125 1026 z "},"Č":{"ha":660,"x_min":0,"x_max":590,"o":"m 308 625 l 308 833 l 590 833 l 590 521 l 382 521 l 382 625 l 308 625 m 308 208 l 308 0 l 590 0 l 590 313 l 382 313 l 382 208 l 308 208 m 281 0 l 281 208 l 208 208 l 208 625 l 281 625 l 281 833 l 139 833 l 0 694 l 0 139 l 139 0 l 281 0 m 89 954 l 114 1092 l 297 1042 l 481 1092 l 506 954 l 297 878 l 89 954 z "},"Ç":{"ha":660,"x_min":0,"x_max":590,"o":"m 308 625 l 308 833 l 590 833 l 590 521 l 382 521 l 382 625 l 308 625 m 201 -28 l 403 -28 l 347 -139 l 174 -139 l 201 -28 m 139 0 l 0 139 l 0 694 l 139 833 l 281 833 l 281 625 l 208 625 l 208 208 l 281 208 l 281 0 l 139 0 m 590 0 l 590 313 l 382 313 l 382 208 l 308 208 l 308 0 l 590 0 z "},"ç":{"ha":660,"x_min":0,"x_max":590,"o":"m 308 625 l 308 833 l 590 833 l 590 521 l 382 521 l 382 625 l 308 625 m 201 -28 l 403 -28 l 347 -139 l 174 -139 l 201 -28 m 139 0 l 0 139 l 0 694 l 139 833 l 281 833 l 281 625 l 208 625 l 208 208 l 281 208 l 281 0 l 139 0 m 590 0 l 590 313 l 382 313 l 382 208 l 308 208 l 308 0 l 590 0 z "},"Ĉ":{"ha":660,"x_min":0,"x_max":590,"o":"m 308 625 l 308 833 l 590 833 l 590 521 l 382 521 l 382 625 l 308 625 m 308 208 l 308 0 l 590 0 l 590 313 l 382 313 l 382 208 l 308 208 m 281 0 l 281 208 l 208 208 l 208 625 l 281 625 l 281 833 l 139 833 l 0 694 l 0 139 l 139 0 l 281 0 m 297 1106 l 506 1029 l 481 892 l 297 942 l 114 892 l 89 1029 l 297 1106 z "},"Ċ":{"ha":660,"x_min":0,"x_max":590,"o":"m 308 625 l 308 833 l 590 833 l 590 521 l 382 521 l 382 625 l 308 625 m 308 208 l 308 0 l 590 0 l 590 313 l 382 313 l 382 208 l 308 208 m 281 0 l 281 208 l 208 208 l 208 625 l 281 625 l 281 833 l 139 833 l 0 694 l 0 139 l 139 0 l 281 0 m 211 1065 l 385 1065 l 385 892 l 211 892 l 211 1065 z "},"Đ":{"ha":729,"x_min":0,"x_max":660,"o":"m 306 208 l 451 208 l 451 625 l 306 625 l 306 833 l 521 833 l 660 694 l 660 139 l 521 0 l 306 0 l 306 208 m 278 333 l 278 0 l 0 0 l 0 208 l 69 208 l 69 333 l 0 333 l 0 500 l 69 500 l 69 625 l 0 625 l 0 833 l 278 833 l 278 500 l 347 500 l 347 333 l 278 333 z "},"Ď":{"ha":729,"x_min":0,"x_max":660,"o":"m 306 208 l 451 208 l 451 625 l 306 625 l 306 833 l 521 833 l 660 694 l 660 139 l 521 0 l 306 0 l 306 208 m 278 0 l 0 0 l 0 208 l 69 208 l 69 625 l 0 625 l 0 833 l 278 833 l 278 0 m 121 954 l 146 1092 l 329 1042 l 513 1092 l 538 954 l 329 878 l 121 954 z "},"É":{"ha":694,"x_min":0,"x_max":625,"o":"m 306 486 l 417 486 l 417 347 l 306 347 l 306 486 m 278 0 l 0 0 l 0 208 l 69 208 l 69 625 l 0 625 l 0 833 l 278 833 l 278 0 m 306 208 l 417 208 l 417 313 l 625 313 l 625 0 l 306 0 l 306 208 m 306 833 l 625 833 l 625 521 l 417 521 l 417 625 l 306 625 l 306 833 m 139 1026 l 478 1103 l 508 932 l 164 889 l 139 1026 z "},"Ě":{"ha":694,"x_min":0,"x_max":625,"o":"m 306 486 l 417 486 l 417 347 l 306 347 l 306 486 m 278 0 l 0 0 l 0 208 l 69 208 l 69 625 l 0 625 l 0 833 l 278 833 l 278 0 m 306 208 l 417 208 l 417 313 l 625 313 l 625 0 l 306 0 l 306 208 m 306 833 l 625 833 l 625 521 l 417 521 l 417 625 l 306 625 l 306 833 m 104 954 l 129 1092 l 313 1042 l 496 1092 l 521 954 l 313 878 l 104 954 z "},"Ê":{"ha":694,"x_min":0,"x_max":625,"o":"m 306 486 l 417 486 l 417 347 l 306 347 l 306 486 m 278 0 l 0 0 l 0 208 l 69 208 l 69 625 l 0 625 l 0 833 l 278 833 l 278 0 m 306 208 l 417 208 l 417 313 l 625 313 l 625 0 l 306 0 l 306 208 m 306 833 l 625 833 l 625 521 l 417 521 l 417 625 l 306 625 l 306 833 m 313 1106 l 521 1029 l 496 892 l 313 942 l 129 892 l 104 1029 l 313 1106 z "},"Ë":{"ha":694,"x_min":0,"x_max":625,"o":"m 306 486 l 417 486 l 417 347 l 306 347 l 306 486 m 278 0 l 0 0 l 0 208 l 69 208 l 69 625 l 0 625 l 0 833 l 278 833 l 278 0 m 306 208 l 417 208 l 417 313 l 625 313 l 625 0 l 306 0 l 306 208 m 306 833 l 625 833 l 625 521 l 417 521 l 417 625 l 306 625 l 306 833 m 104 1065 l 278 1065 l 278 892 l 104 892 l 104 1065 m 347 1065 l 521 1065 l 521 892 l 347 892 l 347 1065 z "},"Ė":{"ha":694,"x_min":0,"x_max":625,"o":"m 306 486 l 417 486 l 417 347 l 306 347 l 306 486 m 278 0 l 0 0 l 0 208 l 69 208 l 69 625 l 0 625 l 0 833 l 278 833 l 278 0 m 306 208 l 417 208 l 417 313 l 625 313 l 625 0 l 306 0 l 306 208 m 306 833 l 625 833 l 625 521 l 417 521 l 417 625 l 306 625 l 306 833 m 228 1065 l 401 1065 l 401 892 l 228 892 l 228 1065 z "},"È":{"ha":694,"x_min":0,"x_max":625,"o":"m 306 486 l 417 486 l 417 347 l 306 347 l 306 486 m 278 0 l 0 0 l 0 208 l 69 208 l 69 625 l 0 625 l 0 833 l 278 833 l 278 0 m 306 208 l 417 208 l 417 313 l 625 313 l 625 0 l 306 0 l 306 208 m 306 833 l 625 833 l 625 521 l 417 521 l 417 625 l 306 625 l 306 833 m 464 892 l 119 935 l 150 1106 l 489 1029 l 464 892 z "},"Ē":{"ha":694,"x_min":0,"x_max":625,"o":"m 306 486 l 417 486 l 417 347 l 306 347 l 306 486 m 278 0 l 0 0 l 0 208 l 69 208 l 69 625 l 0 625 l 0 833 l 278 833 l 278 0 m 306 208 l 417 208 l 417 313 l 625 313 l 625 0 l 306 0 l 306 208 m 306 833 l 625 833 l 625 521 l 417 521 l 417 625 l 306 625 l 306 833 m 521 1044 l 521 892 l 104 892 l 104 1044 l 521 1044 z "},"Ę":{"ha":694,"x_min":0,"x_max":667,"o":"m 611 -28 l 583 -83 l 667 -83 l 667 -194 l 444 -194 l 444 -83 l 472 -28 l 611 -28 m 306 486 l 417 486 l 417 347 l 306 347 l 306 486 m 278 0 l 0 0 l 0 208 l 69 208 l 69 625 l 0 625 l 0 833 l 278 833 l 278 0 m 306 208 l 417 208 l 417 313 l 625 313 l 625 0 l 306 0 l 306 208 m 306 833 l 625 833 l 625 521 l 417 521 l 417 625 l 306 625 l 306 833 z "},"Ğ":{"ha":660,"x_min":0,"x_max":590,"o":"m 308 208 l 382 208 l 382 313 l 278 313 l 278 465 l 590 465 l 590 0 l 308 0 l 308 208 m 308 833 l 590 833 l 590 521 l 382 521 l 382 625 l 308 625 l 308 833 m 281 0 l 281 208 l 208 208 l 208 625 l 281 625 l 281 833 l 139 833 l 0 694 l 0 139 l 139 0 l 281 0 m 89 954 l 114 1092 l 297 1042 l 481 1092 l 506 954 l 297 878 l 89 954 z "},"Ĝ":{"ha":660,"x_min":0,"x_max":590,"o":"m 308 208 l 382 208 l 382 313 l 278 313 l 278 465 l 590 465 l 590 0 l 308 0 l 308 208 m 308 833 l 590 833 l 590 521 l 382 521 l 382 625 l 308 625 l 308 833 m 281 0 l 281 208 l 208 208 l 208 625 l 281 625 l 281 833 l 139 833 l 0 694 l 0 139 l 139 0 l 281 0 m 297 1106 l 506 1029 l 481 892 l 297 942 l 114 892 l 89 1029 l 297 1106 z "},"Ģ":{"ha":660,"x_min":0,"x_max":590,"o":"m 308 208 l 382 208 l 382 313 l 278 313 l 278 465 l 590 465 l 590 0 l 308 0 l 308 208 m 308 833 l 590 833 l 590 521 l 382 521 l 382 625 l 308 625 l 308 833 m 281 0 l 281 208 l 208 208 l 208 625 l 281 625 l 281 833 l 139 833 l 0 694 l 0 139 l 139 0 l 281 0 m 417 -39 l 347 -178 l 174 -178 l 208 -39 l 417 -39 z "},"Ġ":{"ha":660,"x_min":0,"x_max":590,"o":"m 308 208 l 382 208 l 382 313 l 278 313 l 278 465 l 590 465 l 590 0 l 308 0 l 308 208 m 308 833 l 590 833 l 590 521 l 382 521 l 382 625 l 308 625 l 308 833 m 281 0 l 281 208 l 208 208 l 208 625 l 281 625 l 281 833 l 139 833 l 0 694 l 0 139 l 139 0 l 281 0 m 211 1065 l 385 1065 l 385 892 l 211 892 l 211 1065 z "},"Ħ":{"ha":764,"x_min":0,"x_max":694,"o":"m 417 590 l 417 833 l 694 833 l 694 625 l 625 625 l 625 590 l 694 590 l 694 521 l 625 521 l 625 208 l 694 208 l 694 0 l 417 0 l 417 313 l 306 313 l 306 486 l 417 486 l 417 521 l 306 521 l 306 590 l 417 590 m 278 0 l 0 0 l 0 208 l 69 208 l 69 521 l 0 521 l 0 590 l 69 590 l 69 625 l 0 625 l 0 833 l 278 833 l 278 0 z "},"Ĥ":{"ha":764,"x_min":0,"x_max":694,"o":"m 306 521 l 417 521 l 417 833 l 694 833 l 694 625 l 625 625 l 625 208 l 694 208 l 694 0 l 417 0 l 417 313 l 306 313 l 306 521 m 278 0 l 0 0 l 0 208 l 69 208 l 69 625 l 0 625 l 0 833 l 278 833 l 278 0 m 347 1106 l 556 1029 l 531 892 l 347 942 l 164 892 l 139 1029 l 347 1106 z "},"Í":{"ha":417,"x_min":0,"x_max":372,"o":"m 347 833 l 347 625 l 278 625 l 278 208 l 347 208 l 347 0 l 0 0 l 0 208 l 69 208 l 69 625 l 0 625 l 0 833 l 347 833 m 3 1026 l 342 1103 l 372 932 l 28 889 l 3 1026 z "},"Î":{"ha":417,"x_min":-32,"x_max":385,"o":"m 347 833 l 347 625 l 278 625 l 278 208 l 347 208 l 347 0 l 0 0 l 0 208 l 69 208 l 69 625 l 0 625 l 0 833 l 347 833 m 176 1106 l 385 1029 l 360 892 l 176 942 l -7 892 l -32 1029 l 176 1106 z "},"Ï":{"ha":417,"x_min":-32,"x_max":385,"o":"m 347 833 l 347 625 l 278 625 l 278 208 l 347 208 l 347 0 l 0 0 l 0 208 l 69 208 l 69 625 l 0 625 l 0 833 l 347 833 m -32 1065 l 142 1065 l 142 892 l -32 892 l -32 1065 m 211 1065 l 385 1065 l 385 892 l 211 892 l 211 1065 z "},"İ":{"ha":417,"x_min":0,"x_max":347,"o":"m 347 833 l 347 625 l 278 625 l 278 208 l 347 208 l 347 0 l 0 0 l 0 208 l 69 208 l 69 625 l 0 625 l 0 833 l 347 833 m 89 1065 l 263 1065 l 263 892 l 89 892 l 89 1065 z "},"Ì":{"ha":417,"x_min":-19,"x_max":350,"o":"m 347 833 l 347 625 l 278 625 l 278 208 l 347 208 l 347 0 l 0 0 l 0 208 l 69 208 l 69 625 l 0 625 l 0 833 l 347 833 m 325 892 l -19 935 l 11 1106 l 350 1029 l 325 892 z "},"Į":{"ha":417,"x_min":0,"x_max":389,"o":"m 347 0 l 0 0 l 0 208 l 69 208 l 69 625 l 0 625 l 0 833 l 347 833 l 347 625 l 278 625 l 278 208 l 347 208 l 347 0 m 333 -28 l 306 -83 l 389 -83 l 389 -194 l 167 -194 l 167 -83 l 194 -28 l 333 -28 z "},"Ĵ":{"ha":694,"x_min":0,"x_max":660,"o":"m 292 0 l 292 208 l 347 208 l 347 625 l 278 625 l 278 833 l 625 833 l 625 625 l 556 625 l 556 139 l 417 0 l 292 0 m 264 208 l 264 0 l 139 0 l 0 139 l 0 313 l 208 313 l 208 208 l 264 208 m 451 1106 l 660 1029 l 635 892 l 451 942 l 268 892 l 243 1029 l 451 1106 z "},"Ķ":{"ha":708,"x_min":0,"x_max":639,"o":"m 278 0 l 0 0 l 0 208 l 69 208 l 69 625 l 0 625 l 0 833 l 278 833 l 278 0 m 306 633 l 306 200 l 417 0 l 639 0 l 639 208 l 542 208 l 425 417 l 542 625 l 639 625 l 639 833 l 417 833 l 306 633 m 440 -39 l 371 -178 l 197 -178 l 232 -39 l 440 -39 z "},"Ĺ":{"ha":694,"x_min":0,"x_max":625,"o":"m 306 0 l 306 208 l 417 208 l 417 313 l 625 313 l 625 0 l 306 0 m 278 0 l 0 0 l 0 208 l 69 208 l 69 625 l 0 625 l 0 833 l 347 833 l 347 625 l 278 625 l 278 0 m 3 1026 l 342 1103 l 372 932 l 28 889 l 3 1026 z "},"Ļ":{"ha":694,"x_min":0,"x_max":625,"o":"m 306 0 l 306 208 l 417 208 l 417 313 l 625 313 l 625 0 l 306 0 m 278 0 l 0 0 l 0 208 l 69 208 l 69 625 l 0 625 l 0 833 l 347 833 l 347 625 l 278 625 l 278 0 m 433 -39 l 364 -178 l 190 -178 l 225 -39 l 433 -39 z "},"Ń":{"ha":764,"x_min":0,"x_max":694,"o":"m 236 833 l 556 208 l 694 208 l 694 0 l 458 0 l 139 625 l 0 625 l 0 833 l 236 833 m 417 540 l 417 833 l 694 833 l 694 625 l 625 625 l 625 236 l 572 236 l 417 540 m 69 597 l 69 208 l 0 208 l 0 0 l 278 0 l 278 293 l 122 597 l 69 597 m 154 1026 l 493 1103 l 524 932 l 179 889 l 154 1026 z "},"Ň":{"ha":764,"x_min":0,"x_max":694,"o":"m 236 833 l 556 208 l 694 208 l 694 0 l 458 0 l 139 625 l 0 625 l 0 833 l 236 833 m 417 540 l 417 833 l 694 833 l 694 625 l 625 625 l 625 236 l 572 236 l 417 540 m 69 597 l 69 208 l 0 208 l 0 0 l 278 0 l 278 293 l 122 597 l 69 597 m 139 954 l 164 1092 l 347 1042 l 531 1092 l 556 954 l 347 878 l 139 954 z "},"Ņ":{"ha":764,"x_min":0,"x_max":694,"o":"m 236 833 l 556 208 l 694 208 l 694 0 l 458 0 l 139 625 l 0 625 l 0 833 l 236 833 m 417 540 l 417 833 l 694 833 l 694 625 l 625 625 l 625 236 l 572 236 l 417 540 m 69 597 l 69 208 l 0 208 l 0 0 l 278 0 l 278 293 l 122 597 l 69 597 m 468 -39 l 399 -178 l 225 -178 l 260 -39 l 468 -39 z "},"Ñ":{"ha":764,"x_min":0,"x_max":694,"o":"m 236 833 l 556 208 l 694 208 l 694 0 l 458 0 l 139 625 l 0 625 l 0 833 l 236 833 m 417 540 l 417 833 l 694 833 l 694 625 l 625 625 l 625 236 l 572 236 l 417 540 m 69 597 l 69 208 l 0 208 l 0 0 l 278 0 l 278 293 l 122 597 l 69 597 m 568 968 l 464 892 l 256 940 l 151 892 l 126 1029 l 231 1106 l 439 1057 l 543 1106 l 568 968 z "},"Ó":{"ha":660,"x_min":0,"x_max":590,"o":"m 451 833 l 590 694 l 590 139 l 451 0 l 308 0 l 308 208 l 382 208 l 382 625 l 308 625 l 308 833 l 451 833 m 139 0 l 0 139 l 0 694 l 139 833 l 281 833 l 281 625 l 208 625 l 208 208 l 281 208 l 281 0 l 139 0 m 125 1026 l 464 1103 l 494 932 l 150 889 l 125 1026 z "},"Ô":{"ha":660,"x_min":0,"x_max":590,"o":"m 451 833 l 590 694 l 590 139 l 451 0 l 308 0 l 308 208 l 382 208 l 382 625 l 308 625 l 308 833 l 451 833 m 139 0 l 0 139 l 0 694 l 139 833 l 281 833 l 281 625 l 208 625 l 208 208 l 281 208 l 281 0 l 139 0 m 297 1106 l 506 1029 l 481 892 l 297 942 l 114 892 l 89 1029 l 297 1106 z "},"Ö":{"ha":660,"x_min":0,"x_max":590,"o":"m 451 833 l 590 694 l 590 139 l 451 0 l 308 0 l 308 208 l 382 208 l 382 625 l 308 625 l 308 833 l 451 833 m 139 0 l 0 139 l 0 694 l 139 833 l 281 833 l 281 625 l 208 625 l 208 208 l 281 208 l 281 0 l 139 0 m 89 1065 l 263 1065 l 263 892 l 89 892 l 89 1065 m 332 1065 l 506 1065 l 506 892 l 332 892 l 332 1065 z "},"Ò":{"ha":660,"x_min":0,"x_max":590,"o":"m 451 833 l 590 694 l 590 139 l 451 0 l 308 0 l 308 208 l 382 208 l 382 625 l 308 625 l 308 833 l 451 833 m 139 0 l 0 139 l 0 694 l 139 833 l 281 833 l 281 625 l 208 625 l 208 208 l 281 208 l 281 0 l 139 0 m 446 892 l 101 935 l 132 1106 l 471 1029 l 446 892 z "},"˝":{"ha":694,"x_min":104,"x_max":521,"o":"m 167 1076 l 319 1076 l 257 903 l 104 903 l 167 1076 m 368 1076 l 521 1076 l 458 903 l 306 903 l 368 1076 z "},"Ő":{"ha":660,"x_min":0,"x_max":590,"o":"m 451 833 l 590 694 l 590 139 l 451 0 l 308 0 l 308 208 l 382 208 l 382 625 l 308 625 l 308 833 l 451 833 m 139 0 l 0 139 l 0 694 l 139 833 l 281 833 l 281 625 l 208 625 l 208 208 l 281 208 l 281 0 l 139 0 m 181 1065 l 333 1065 l 271 892 l 118 892 l 181 1065 m 382 1065 l 535 1065 l 472 892 l 319 892 l 382 1065 z "},"Õ":{"ha":660,"x_min":0,"x_max":590,"o":"m 451 833 l 590 694 l 590 139 l 451 0 l 308 0 l 308 208 l 382 208 l 382 625 l 308 625 l 308 833 l 451 833 m 139 0 l 0 139 l 0 694 l 139 833 l 281 833 l 281 625 l 208 625 l 208 208 l 281 208 l 281 0 l 139 0 m 518 968 l 414 892 l 206 940 l 101 892 l 76 1029 l 181 1106 l 389 1057 l 493 1106 l 518 968 z "},"Ŕ":{"ha":742,"x_min":0,"x_max":672,"o":"m 306 486 l 417 486 l 417 625 l 306 625 l 306 833 l 486 833 l 625 694 l 625 451 l 556 382 l 603 208 l 672 208 l 672 0 l 444 0 l 368 278 l 306 278 l 306 486 m 278 0 l 0 0 l 0 208 l 69 208 l 69 625 l 0 625 l 0 833 l 278 833 l 278 0 m 149 1026 l 488 1103 l 518 932 l 174 889 l 149 1026 z "},"Ř":{"ha":742,"x_min":0,"x_max":672,"o":"m 306 486 l 417 486 l 417 625 l 306 625 l 306 833 l 486 833 l 625 694 l 625 451 l 556 382 l 603 208 l 672 208 l 672 0 l 444 0 l 368 278 l 306 278 l 306 486 m 278 0 l 0 0 l 0 208 l 69 208 l 69 625 l 0 625 l 0 833 l 278 833 l 278 0 m 128 954 l 153 1092 l 336 1042 l 519 1092 l 544 954 l 336 878 l 128 954 z "},"Ŗ":{"ha":742,"x_min":0,"x_max":672,"o":"m 306 486 l 417 486 l 417 625 l 306 625 l 306 833 l 486 833 l 625 694 l 625 451 l 556 382 l 603 208 l 672 208 l 672 0 l 444 0 l 368 278 l 306 278 l 306 486 m 278 0 l 0 0 l 0 208 l 69 208 l 69 625 l 0 625 l 0 833 l 278 833 l 278 0 m 457 -39 l 388 -178 l 214 -178 l 249 -39 l 457 -39 z "},"Ś":{"ha":639,"x_min":0,"x_max":569,"o":"m 299 833 l 569 833 l 569 556 l 361 556 l 361 625 l 299 625 l 299 833 m 271 0 l 0 0 l 0 278 l 208 278 l 208 208 l 271 208 l 271 0 m 299 208 l 361 208 l 361 285 l 0 396 l 0 694 l 139 833 l 271 833 l 271 625 l 208 625 l 208 549 l 569 438 l 569 139 l 431 0 l 299 0 l 299 208 m 129 1026 l 468 1103 l 499 932 l 154 889 l 129 1026 z "},"Š":{"ha":639,"x_min":0,"x_max":569,"o":"m 299 833 l 569 833 l 569 556 l 361 556 l 361 625 l 299 625 l 299 833 m 271 0 l 0 0 l 0 278 l 208 278 l 208 208 l 271 208 l 271 0 m 299 208 l 361 208 l 361 285 l 0 396 l 0 694 l 139 833 l 271 833 l 271 625 l 208 625 l 208 549 l 569 438 l 569 139 l 431 0 l 299 0 l 299 208 m 79 954 l 104 1092 l 288 1042 l 471 1092 l 496 954 l 288 878 l 79 954 z "},"Ş":{"ha":639,"x_min":0,"x_max":569,"o":"m 299 833 l 569 833 l 569 556 l 361 556 l 361 625 l 299 625 l 299 833 m 271 0 l 0 0 l 0 278 l 208 278 l 208 208 l 271 208 l 271 0 m 299 208 l 361 208 l 361 285 l 0 396 l 0 694 l 139 833 l 271 833 l 271 625 l 208 625 l 208 549 l 569 438 l 569 139 l 431 0 l 299 0 l 299 208 m 406 -39 l 336 -178 l 163 -178 l 197 -39 l 406 -39 z "},"Ŝ":{"ha":639,"x_min":0,"x_max":569,"o":"m 299 833 l 569 833 l 569 556 l 361 556 l 361 625 l 299 625 l 299 833 m 271 0 l 0 0 l 0 278 l 208 278 l 208 208 l 271 208 l 271 0 m 299 208 l 361 208 l 361 285 l 0 396 l 0 694 l 139 833 l 271 833 l 271 625 l 208 625 l 208 549 l 569 438 l 569 139 l 431 0 l 299 0 l 299 208 m 288 1106 l 496 1029 l 471 892 l 288 942 l 104 892 l 79 1029 l 288 1106 z "},"Ș":{"ha":639,"x_min":0,"x_max":569,"o":"m 299 833 l 569 833 l 569 556 l 361 556 l 361 625 l 299 625 l 299 833 m 271 0 l 0 0 l 0 278 l 208 278 l 208 208 l 271 208 l 271 0 m 299 208 l 361 208 l 361 285 l 0 396 l 0 694 l 139 833 l 271 833 l 271 625 l 208 625 l 208 549 l 569 438 l 569 139 l 431 0 l 299 0 l 299 208 m 406 -39 l 336 -178 l 163 -178 l 197 -39 l 406 -39 z "},"Ť":{"ha":764,"x_min":0,"x_max":694,"o":"m 215 833 l 215 625 l 174 625 l 174 521 l 0 521 l 0 833 l 215 833 m 479 625 l 479 833 l 694 833 l 694 521 l 521 521 l 521 625 l 479 625 m 451 833 l 451 208 l 521 208 l 521 0 l 174 0 l 174 208 l 243 208 l 243 833 l 451 833 m 139 954 l 164 1092 l 347 1042 l 531 1092 l 556 954 l 347 878 l 139 954 z "},"Ţ":{"ha":764,"x_min":0,"x_max":694,"o":"m 215 833 l 215 625 l 174 625 l 174 521 l 0 521 l 0 833 l 215 833 m 479 625 l 479 833 l 694 833 l 694 521 l 521 521 l 521 625 l 479 625 m 451 833 l 451 208 l 521 208 l 521 0 l 174 0 l 174 208 l 243 208 l 243 833 l 451 833 m 468 -39 l 399 -178 l 225 -178 l 260 -39 l 468 -39 z "},"Ú":{"ha":799,"x_min":0,"x_max":729,"o":"m 378 0 l 378 208 l 451 208 l 451 833 l 729 833 l 729 625 l 660 625 l 660 139 l 521 0 l 378 0 m 350 0 l 208 0 l 69 139 l 69 625 l 0 625 l 0 833 l 278 833 l 278 208 l 350 208 l 350 0 m 161 1026 l 500 1103 l 531 932 l 186 889 l 161 1026 z "},"Ŭ":{"ha":799,"x_min":0,"x_max":729,"o":"m 378 0 l 378 208 l 451 208 l 451 833 l 729 833 l 729 625 l 660 625 l 660 139 l 521 0 l 378 0 m 350 0 l 208 0 l 69 139 l 69 625 l 0 625 l 0 833 l 278 833 l 278 208 l 350 208 l 350 0 m 156 954 l 181 1092 l 364 1042 l 547 1092 l 572 954 l 364 878 l 156 954 z "},"Û":{"ha":799,"x_min":0,"x_max":729,"o":"m 378 0 l 378 208 l 451 208 l 451 833 l 729 833 l 729 625 l 660 625 l 660 139 l 521 0 l 378 0 m 350 0 l 208 0 l 69 139 l 69 625 l 0 625 l 0 833 l 278 833 l 278 208 l 350 208 l 350 0 m 364 1106 l 572 1029 l 547 892 l 364 942 l 181 892 l 156 1029 l 364 1106 z "},"Ü":{"ha":799,"x_min":0,"x_max":729,"o":"m 378 0 l 378 208 l 451 208 l 451 833 l 729 833 l 729 625 l 660 625 l 660 139 l 521 0 l 378 0 m 350 0 l 208 0 l 69 139 l 69 625 l 0 625 l 0 833 l 278 833 l 278 208 l 350 208 l 350 0 m 156 1065 l 329 1065 l 329 892 l 156 892 l 156 1065 m 399 1065 l 572 1065 l 572 892 l 399 892 l 399 1065 z "},"Ù":{"ha":799,"x_min":0,"x_max":729,"o":"m 378 0 l 378 208 l 451 208 l 451 833 l 729 833 l 729 625 l 660 625 l 660 139 l 521 0 l 378 0 m 350 0 l 208 0 l 69 139 l 69 625 l 0 625 l 0 833 l 278 833 l 278 208 l 350 208 l 350 0 m 543 892 l 199 935 l 229 1106 l 568 1029 l 543 892 z "},"Ű":{"ha":799,"x_min":0,"x_max":729,"o":"m 378 0 l 378 208 l 451 208 l 451 833 l 729 833 l 729 625 l 660 625 l 660 139 l 521 0 l 378 0 m 350 0 l 208 0 l 69 139 l 69 625 l 0 625 l 0 833 l 278 833 l 278 208 l 350 208 l 350 0 m 250 1065 l 403 1065 l 340 892 l 188 892 l 250 1065 m 451 1065 l 604 1065 l 542 892 l 389 892 l 451 1065 z "},"Ū":{"ha":799,"x_min":0,"x_max":729,"o":"m 378 0 l 378 208 l 451 208 l 451 833 l 729 833 l 729 625 l 660 625 l 660 139 l 521 0 l 378 0 m 350 0 l 208 0 l 69 139 l 69 625 l 0 625 l 0 833 l 278 833 l 278 208 l 350 208 l 350 0 m 572 1043 l 572 892 l 156 892 l 156 1043 l 572 1043 z "},"Ų":{"ha":799,"x_min":0,"x_max":729,"o":"m 507 -28 l 479 -83 l 563 -83 l 563 -194 l 340 -194 l 340 -83 l 368 -28 l 507 -28 m 378 0 l 378 208 l 451 208 l 451 833 l 729 833 l 729 625 l 660 625 l 660 139 l 521 0 l 378 0 m 350 0 l 208 0 l 69 139 l 69 625 l 0 625 l 0 833 l 278 833 l 278 208 l 350 208 l 350 0 z "},"Ů":{"ha":799,"x_min":0,"x_max":729,"o":"m 378 0 l 378 208 l 451 208 l 451 833 l 729 833 l 729 625 l 660 625 l 660 139 l 521 0 l 378 0 m 350 0 l 208 0 l 69 139 l 69 625 l 0 625 l 0 833 l 278 833 l 278 208 l 350 208 l 350 0 m 294 875 l 225 944 l 225 1083 l 294 1153 l 433 1153 l 503 1083 l 503 944 l 433 875 l 294 875 m 329 979 l 399 979 l 399 1049 l 329 1049 l 329 979 z "},"Ŵ":{"ha":1097,"x_min":0,"x_max":1028,"o":"m 769 0 l 726 342 l 772 833 l 1028 833 l 1028 625 l 958 625 l 885 0 l 769 0 m 740 0 l 579 0 l 514 556 l 449 0 l 363 0 l 331 339 l 394 833 l 633 833 l 740 0 m 333 0 l 143 0 l 69 625 l 0 625 l 0 833 l 256 833 l 333 0 m 514 1106 l 722 1029 l 697 892 l 514 942 l 331 892 l 306 1029 l 514 1106 z "},"Ý":{"ha":736,"x_min":0,"x_max":667,"o":"m 438 446 l 438 208 l 507 208 l 507 0 l 160 0 l 160 208 l 229 208 l 229 386 l 97 625 l 0 625 l 0 833 l 222 833 l 438 446 m 469 446 l 569 625 l 667 625 l 667 833 l 444 833 l 350 663 l 469 446 m 147 1026 l 486 1103 l 517 932 l 172 889 l 147 1026 z "},"Ŷ":{"ha":736,"x_min":0,"x_max":667,"o":"m 438 446 l 438 208 l 507 208 l 507 0 l 160 0 l 160 208 l 229 208 l 229 386 l 97 625 l 0 625 l 0 833 l 222 833 l 438 446 m 469 446 l 569 625 l 667 625 l 667 833 l 444 833 l 350 663 l 469 446 m 333 1106 l 542 1029 l 517 892 l 333 942 l 150 892 l 125 1029 l 333 1106 z "},"Ÿ":{"ha":736,"x_min":0,"x_max":667,"o":"m 438 446 l 438 208 l 507 208 l 507 0 l 160 0 l 160 208 l 229 208 l 229 386 l 97 625 l 0 625 l 0 833 l 222 833 l 438 446 m 469 446 l 569 625 l 667 625 l 667 833 l 444 833 l 350 663 l 469 446 m 125 1065 l 299 1065 l 299 892 l 125 892 l 125 1065 m 368 1065 l 542 1065 l 542 892 l 368 892 l 368 1065 z "},"Ź":{"ha":667,"x_min":0,"x_max":597,"o":"m 101 0 l 279 208 l 389 208 l 389 278 l 597 278 l 597 0 l 101 0 m 496 833 l 318 625 l 208 625 l 208 556 l 0 556 l 0 833 l 496 833 m 64 0 l 0 0 l 0 208 l 533 833 l 597 833 l 597 625 l 64 0 m 135 1026 l 474 1103 l 504 932 l 160 889 l 135 1026 z "},"Ž":{"ha":667,"x_min":0,"x_max":597,"o":"m 101 0 l 279 208 l 389 208 l 389 278 l 597 278 l 597 0 l 101 0 m 496 833 l 318 625 l 208 625 l 208 556 l 0 556 l 0 833 l 496 833 m 64 0 l 0 0 l 0 208 l 533 833 l 597 833 l 597 625 l 64 0 m 93 954 l 118 1092 l 301 1042 l 485 1092 l 510 954 l 301 878 l 93 954 z "},"Ż":{"ha":667,"x_min":0,"x_max":597,"o":"m 101 0 l 279 208 l 389 208 l 389 278 l 597 278 l 597 0 l 101 0 m 496 833 l 318 625 l 208 625 l 208 556 l 0 556 l 0 833 l 496 833 m 64 0 l 0 0 l 0 208 l 533 833 l 597 833 l 597 625 l 64 0 m 214 1065 l 388 1065 l 388 892 l 214 892 l 214 1065 z "},"'":{"ha":278,"x_min":0,"x_max":208,"o":"m 0 972 l 208 972 l 208 764 l 139 625 l 14 625 l 56 764 l 0 764 l 0 972 z "},"Ł":{"ha":694,"x_min":-43,"x_max":625,"o":"m 278 497 l 493 556 l 529 421 l 278 353 l 278 0 l 0 0 l 0 208 l 69 208 l 69 297 l -7 278 l -43 413 l 69 442 l 69 625 l 0 625 l 0 833 l 347 833 l 347 625 l 278 625 l 278 497 m 306 0 l 306 208 l 417 208 l 417 313 l 625 313 l 625 0 l 306 0 z "},"Ø":{"ha":660,"x_min":-50,"x_max":640,"o":"m 382 208 l 382 375 l 572 713 l 590 694 l 590 139 l 451 0 l 169 0 l 288 208 l 382 208 m 208 625 l 208 458 l 18 121 l 0 139 l 0 694 l 139 833 l 421 833 l 303 625 l 208 625 m 71 -122 l -50 -56 l 521 956 l 640 888 l 71 -122 z "},"Ț":{"ha":764,"x_min":0,"x_max":694,"o":"m 215 833 l 215 625 l 174 625 l 174 521 l 0 521 l 0 833 l 215 833 m 479 625 l 479 833 l 694 833 l 694 521 l 521 521 l 521 625 l 479 625 m 451 833 l 451 208 l 521 208 l 521 0 l 174 0 l 174 208 l 243 208 l 243 833 l 451 833 m 468 -39 l 399 -178 l 225 -178 l 260 -39 l 468 -39 z "},"ț":{"ha":764,"x_min":0,"x_max":694,"o":"m 215 833 l 215 625 l 174 625 l 174 521 l 0 521 l 0 833 l 215 833 m 479 625 l 479 833 l 694 833 l 694 521 l 521 521 l 521 625 l 479 625 m 451 833 l 451 208 l 521 208 l 521 0 l 174 0 l 174 208 l 243 208 l 243 833 l 451 833 m 468 -39 l 399 -178 l 225 -178 l 260 -39 l 468 -39 z "},"Ƶ":{"ha":667,"x_min":0,"x_max":597,"o":"m 517 486 l 597 486 l 597 347 l 399 347 l 517 486 m 81 347 l 0 347 l 0 486 l 199 486 l 81 347 m 101 0 l 279 208 l 389 208 l 389 278 l 597 278 l 597 0 l 101 0 m 496 833 l 318 625 l 208 625 l 208 556 l 0 556 l 0 833 l 496 833 m 64 0 l 0 0 l 0 208 l 533 833 l 597 833 l 597 625 l 64 0 z "},"ƶ":{"ha":667,"x_min":0,"x_max":597,"o":"m 517 486 l 597 486 l 597 347 l 399 347 l 517 486 m 81 347 l 0 347 l 0 486 l 199 486 l 81 347 m 101 0 l 279 208 l 389 208 l 389 278 l 597 278 l 597 0 l 101 0 m 496 833 l 318 625 l 208 625 l 208 556 l 0 556 l 0 833 l 496 833 m 64 0 l 0 0 l 0 208 l 533 833 l 597 833 l 597 625 l 64 0 z "},"á":{"ha":764,"x_min":0,"x_max":694,"o":"m 247 0 l 0 0 l 0 208 l 69 208 l 168 833 l 285 833 l 333 535 l 247 0 m 336 375 l 388 375 l 314 833 l 526 833 l 625 208 l 694 208 l 694 0 l 447 0 l 414 208 l 310 208 l 336 375 m 174 1026 l 543 1103 l 576 932 l 201 889 l 174 1026 z "},"ă":{"ha":764,"x_min":0,"x_max":694,"o":"m 247 0 l 0 0 l 0 208 l 69 208 l 168 833 l 285 833 l 333 535 l 247 0 m 336 375 l 388 375 l 314 833 l 526 833 l 625 208 l 694 208 l 694 0 l 447 0 l 414 208 l 310 208 l 336 375 m 139 954 l 164 1092 l 347 1042 l 531 1092 l 556 954 l 347 878 l 139 954 z "},"â":{"ha":764,"x_min":0,"x_max":694,"o":"m 247 0 l 0 0 l 0 208 l 69 208 l 168 833 l 285 833 l 333 535 l 247 0 m 336 375 l 388 375 l 314 833 l 526 833 l 625 208 l 694 208 l 694 0 l 447 0 l 414 208 l 310 208 l 336 375 m 347 1104 l 564 1028 l 538 891 l 347 941 l 156 891 l 130 1028 l 347 1104 z "},"ä":{"ha":764,"x_min":0,"x_max":694,"o":"m 247 0 l 0 0 l 0 208 l 69 208 l 168 833 l 285 833 l 333 535 l 247 0 m 336 375 l 388 375 l 314 833 l 526 833 l 625 208 l 694 208 l 694 0 l 447 0 l 414 208 l 310 208 l 336 375 m 139 1065 l 313 1065 l 313 892 l 139 892 l 139 1065 m 382 1065 l 556 1065 l 556 892 l 382 892 l 382 1065 z "},"à":{"ha":764,"x_min":0,"x_max":694,"o":"m 247 0 l 0 0 l 0 208 l 69 208 l 168 833 l 285 833 l 333 535 l 247 0 m 336 375 l 388 375 l 314 833 l 526 833 l 625 208 l 694 208 l 694 0 l 447 0 l 414 208 l 310 208 l 336 375 m 496 892 l 151 935 l 182 1106 l 521 1029 l 496 892 z "},"ā":{"ha":764,"x_min":0,"x_max":694,"o":"m 247 0 l 0 0 l 0 208 l 69 208 l 168 833 l 285 833 l 333 535 l 247 0 m 336 375 l 388 375 l 314 833 l 526 833 l 625 208 l 694 208 l 694 0 l 447 0 l 414 208 l 310 208 l 336 375 m 556 1044 l 556 892 l 139 892 l 139 1044 l 556 1044 z "},"ą":{"ha":764,"x_min":0,"x_max":694,"o":"m 447 0 l 414 208 l 310 208 l 336 375 l 388 375 l 314 833 l 526 833 l 625 208 l 694 208 l 694 0 l 447 0 m 626 -28 l 599 -83 l 682 -83 l 682 -194 l 460 -194 l 460 -83 l 488 -28 l 626 -28 m 247 0 l 0 0 l 0 208 l 69 208 l 168 833 l 285 833 l 333 535 l 247 0 z "},"å":{"ha":764,"x_min":0,"x_max":694,"o":"m 247 0 l 0 0 l 0 208 l 69 208 l 168 833 l 285 833 l 333 535 l 247 0 m 336 375 l 388 375 l 314 833 l 526 833 l 625 208 l 694 208 l 694 0 l 447 0 l 414 208 l 310 208 l 336 375 m 278 875 l 208 944 l 208 1083 l 278 1153 l 417 1153 l 486 1083 l 486 944 l 417 875 l 278 875 m 313 979 l 382 979 l 382 1049 l 313 1049 l 313 979 z "},"ã":{"ha":764,"x_min":0,"x_max":694,"o":"m 247 0 l 0 0 l 0 208 l 69 208 l 168 833 l 285 833 l 333 535 l 247 0 m 336 375 l 388 375 l 314 833 l 526 833 l 625 208 l 694 208 l 694 0 l 447 0 l 414 208 l 310 208 l 336 375 m 568 968 l 464 892 l 256 940 l 151 892 l 126 1029 l 231 1106 l 439 1057 l 543 1106 l 568 968 z "},"ć":{"ha":660,"x_min":0,"x_max":590,"o":"m 308 625 l 308 833 l 590 833 l 590 521 l 382 521 l 382 625 l 308 625 m 308 208 l 308 0 l 590 0 l 590 313 l 382 313 l 382 208 l 308 208 m 281 0 l 281 208 l 208 208 l 208 625 l 281 625 l 281 833 l 139 833 l 0 694 l 0 139 l 139 0 l 281 0 m 125 1026 l 464 1103 l 494 932 l 150 889 l 125 1026 z "},"č":{"ha":660,"x_min":0,"x_max":590,"o":"m 308 625 l 308 833 l 590 833 l 590 521 l 382 521 l 382 625 l 308 625 m 308 208 l 308 0 l 590 0 l 590 313 l 382 313 l 382 208 l 308 208 m 281 0 l 281 208 l 208 208 l 208 625 l 281 625 l 281 833 l 139 833 l 0 694 l 0 139 l 139 0 l 281 0 m 89 954 l 114 1092 l 297 1042 l 481 1092 l 506 954 l 297 878 l 89 954 z "},"ĉ":{"ha":660,"x_min":0,"x_max":590,"o":"m 308 625 l 308 833 l 590 833 l 590 521 l 382 521 l 382 625 l 308 625 m 308 208 l 308 0 l 590 0 l 590 313 l 382 313 l 382 208 l 308 208 m 281 0 l 281 208 l 208 208 l 208 625 l 281 625 l 281 833 l 139 833 l 0 694 l 0 139 l 139 0 l 281 0 m 297 1106 l 506 1029 l 481 892 l 297 942 l 114 892 l 89 1029 l 297 1106 z "},"ċ":{"ha":660,"x_min":0,"x_max":590,"o":"m 308 625 l 308 833 l 590 833 l 590 521 l 382 521 l 382 625 l 308 625 m 308 208 l 308 0 l 590 0 l 590 313 l 382 313 l 382 208 l 308 208 m 281 0 l 281 208 l 208 208 l 208 625 l 281 625 l 281 833 l 139 833 l 0 694 l 0 139 l 139 0 l 281 0 m 211 1065 l 385 1065 l 385 892 l 211 892 l 211 1065 z "},"ď":{"ha":729,"x_min":0,"x_max":660,"o":"m 306 208 l 451 208 l 451 625 l 306 625 l 306 833 l 521 833 l 660 694 l 660 139 l 521 0 l 306 0 l 306 208 m 278 0 l 0 0 l 0 208 l 69 208 l 69 625 l 0 625 l 0 833 l 278 833 l 278 0 m 121 954 l 146 1092 l 329 1042 l 513 1092 l 538 954 l 329 878 l 121 954 z "},"đ":{"ha":729,"x_min":0,"x_max":660,"o":"m 306 208 l 451 208 l 451 625 l 306 625 l 306 833 l 521 833 l 660 694 l 660 139 l 521 0 l 306 0 l 306 208 m 278 333 l 278 0 l 0 0 l 0 208 l 69 208 l 69 333 l 0 333 l 0 500 l 69 500 l 69 625 l 0 625 l 0 833 l 278 833 l 278 500 l 347 500 l 347 333 l 278 333 z "},"é":{"ha":694,"x_min":0,"x_max":625,"o":"m 306 486 l 417 486 l 417 347 l 306 347 l 306 486 m 278 0 l 0 0 l 0 208 l 69 208 l 69 625 l 0 625 l 0 833 l 278 833 l 278 0 m 306 208 l 417 208 l 417 313 l 625 313 l 625 0 l 306 0 l 306 208 m 306 833 l 625 833 l 625 521 l 417 521 l 417 625 l 306 625 l 306 833 m 139 1026 l 478 1103 l 508 932 l 164 889 l 139 1026 z "},"ě":{"ha":694,"x_min":0,"x_max":625,"o":"m 306 486 l 417 486 l 417 347 l 306 347 l 306 486 m 278 0 l 0 0 l 0 208 l 69 208 l 69 625 l 0 625 l 0 833 l 278 833 l 278 0 m 306 208 l 417 208 l 417 313 l 625 313 l 625 0 l 306 0 l 306 208 m 306 833 l 625 833 l 625 521 l 417 521 l 417 625 l 306 625 l 306 833 m 104 954 l 129 1092 l 313 1042 l 496 1092 l 521 954 l 313 878 l 104 954 z "},"ê":{"ha":694,"x_min":0,"x_max":625,"o":"m 306 486 l 417 486 l 417 347 l 306 347 l 306 486 m 278 0 l 0 0 l 0 208 l 69 208 l 69 625 l 0 625 l 0 833 l 278 833 l 278 0 m 306 208 l 417 208 l 417 313 l 625 313 l 625 0 l 306 0 l 306 208 m 306 833 l 625 833 l 625 521 l 417 521 l 417 625 l 306 625 l 306 833 m 313 1106 l 521 1029 l 496 892 l 313 942 l 129 892 l 104 1029 l 313 1106 z "},"ë":{"ha":694,"x_min":0,"x_max":625,"o":"m 306 486 l 417 486 l 417 347 l 306 347 l 306 486 m 278 0 l 0 0 l 0 208 l 69 208 l 69 625 l 0 625 l 0 833 l 278 833 l 278 0 m 306 208 l 417 208 l 417 313 l 625 313 l 625 0 l 306 0 l 306 208 m 306 833 l 625 833 l 625 521 l 417 521 l 417 625 l 306 625 l 306 833 m 104 1065 l 278 1065 l 278 892 l 104 892 l 104 1065 m 347 1065 l 521 1065 l 521 892 l 347 892 l 347 1065 z "},"ė":{"ha":694,"x_min":0,"x_max":625,"o":"m 306 486 l 417 486 l 417 347 l 306 347 l 306 486 m 278 0 l 0 0 l 0 208 l 69 208 l 69 625 l 0 625 l 0 833 l 278 833 l 278 0 m 306 208 l 417 208 l 417 313 l 625 313 l 625 0 l 306 0 l 306 208 m 306 833 l 625 833 l 625 521 l 417 521 l 417 625 l 306 625 l 306 833 m 228 1065 l 401 1065 l 401 892 l 228 892 l 228 1065 z "},"è":{"ha":694,"x_min":0,"x_max":625,"o":"m 306 486 l 417 486 l 417 347 l 306 347 l 306 486 m 278 0 l 0 0 l 0 208 l 69 208 l 69 625 l 0 625 l 0 833 l 278 833 l 278 0 m 306 208 l 417 208 l 417 313 l 625 313 l 625 0 l 306 0 l 306 208 m 306 833 l 625 833 l 625 521 l 417 521 l 417 625 l 306 625 l 306 833 m 464 892 l 119 935 l 150 1106 l 489 1029 l 464 892 z "},"ē":{"ha":694,"x_min":0,"x_max":625,"o":"m 306 486 l 417 486 l 417 347 l 306 347 l 306 486 m 278 0 l 0 0 l 0 208 l 69 208 l 69 625 l 0 625 l 0 833 l 278 833 l 278 0 m 306 208 l 417 208 l 417 313 l 625 313 l 625 0 l 306 0 l 306 208 m 306 833 l 625 833 l 625 521 l 417 521 l 417 625 l 306 625 l 306 833 m 521 1044 l 521 892 l 104 892 l 104 1044 l 521 1044 z "},"ę":{"ha":694,"x_min":0,"x_max":667,"o":"m 611 -28 l 583 -83 l 667 -83 l 667 -194 l 444 -194 l 444 -83 l 472 -28 l 611 -28 m 306 486 l 417 486 l 417 347 l 306 347 l 306 486 m 278 0 l 0 0 l 0 208 l 69 208 l 69 625 l 0 625 l 0 833 l 278 833 l 278 0 m 306 208 l 417 208 l 417 313 l 625 313 l 625 0 l 306 0 l 306 208 m 306 833 l 625 833 l 625 521 l 417 521 l 417 625 l 306 625 l 306 833 z "},"ğ":{"ha":660,"x_min":0,"x_max":590,"o":"m 308 208 l 382 208 l 382 313 l 278 313 l 278 465 l 590 465 l 590 0 l 308 0 l 308 208 m 308 833 l 590 833 l 590 521 l 382 521 l 382 625 l 308 625 l 308 833 m 281 0 l 281 208 l 208 208 l 208 625 l 281 625 l 281 833 l 139 833 l 0 694 l 0 139 l 139 0 l 281 0 m 89 954 l 114 1092 l 297 1042 l 481 1092 l 506 954 l 297 878 l 89 954 z "},"ĝ":{"ha":660,"x_min":0,"x_max":590,"o":"m 308 208 l 382 208 l 382 313 l 278 313 l 278 465 l 590 465 l 590 0 l 308 0 l 308 208 m 308 833 l 590 833 l 590 521 l 382 521 l 382 625 l 308 625 l 308 833 m 281 0 l 281 208 l 208 208 l 208 625 l 281 625 l 281 833 l 139 833 l 0 694 l 0 139 l 139 0 l 281 0 m 297 1106 l 506 1029 l 481 892 l 297 942 l 114 892 l 89 1029 l 297 1106 z "},"ģ":{"ha":660,"x_min":0,"x_max":590,"o":"m 308 208 l 382 208 l 382 313 l 278 313 l 278 465 l 590 465 l 590 0 l 308 0 l 308 208 m 308 833 l 590 833 l 590 521 l 382 521 l 382 625 l 308 625 l 308 833 m 281 0 l 281 208 l 208 208 l 208 625 l 281 625 l 281 833 l 139 833 l 0 694 l 0 139 l 139 0 l 281 0 m 417 -39 l 347 -178 l 174 -178 l 208 -39 l 417 -39 z "},"ġ":{"ha":660,"x_min":0,"x_max":590,"o":"m 308 208 l 382 208 l 382 313 l 278 313 l 278 465 l 590 465 l 590 0 l 308 0 l 308 208 m 308 833 l 590 833 l 590 521 l 382 521 l 382 625 l 308 625 l 308 833 m 281 0 l 281 208 l 208 208 l 208 625 l 281 625 l 281 833 l 139 833 l 0 694 l 0 139 l 139 0 l 281 0 m 211 1065 l 385 1065 l 385 892 l 211 892 l 211 1065 z "},"ħ":{"ha":764,"x_min":0,"x_max":694,"o":"m 417 590 l 417 833 l 694 833 l 694 625 l 625 625 l 625 590 l 694 590 l 694 521 l 625 521 l 625 208 l 694 208 l 694 0 l 417 0 l 417 313 l 306 313 l 306 486 l 417 486 l 417 521 l 306 521 l 306 590 l 417 590 m 278 0 l 0 0 l 0 208 l 69 208 l 69 521 l 0 521 l 0 590 l 69 590 l 69 625 l 0 625 l 0 833 l 278 833 l 278 0 z "},"ĥ":{"ha":764,"x_min":0,"x_max":694,"o":"m 306 521 l 417 521 l 417 833 l 694 833 l 694 625 l 625 625 l 625 208 l 694 208 l 694 0 l 417 0 l 417 313 l 306 313 l 306 521 m 278 0 l 0 0 l 0 208 l 69 208 l 69 625 l 0 625 l 0 833 l 278 833 l 278 0 m 347 1106 l 556 1029 l 531 892 l 347 942 l 164 892 l 139 1029 l 347 1106 z "},"í":{"ha":417,"x_min":0,"x_max":372,"o":"m 347 833 l 347 625 l 278 625 l 278 208 l 347 208 l 347 0 l 0 0 l 0 208 l 69 208 l 69 625 l 0 625 l 0 833 l 347 833 m 3 1026 l 342 1103 l 372 932 l 28 889 l 3 1026 z "},"î":{"ha":417,"x_min":-32,"x_max":385,"o":"m 347 833 l 347 625 l 278 625 l 278 208 l 347 208 l 347 0 l 0 0 l 0 208 l 69 208 l 69 625 l 0 625 l 0 833 l 347 833 m 176 1106 l 385 1029 l 360 892 l 176 942 l -7 892 l -32 1029 l 176 1106 z "},"ï":{"ha":417,"x_min":-32,"x_max":385,"o":"m 347 833 l 347 625 l 278 625 l 278 208 l 347 208 l 347 0 l 0 0 l 0 208 l 69 208 l 69 625 l 0 625 l 0 833 l 347 833 m -32 1065 l 142 1065 l 142 892 l -32 892 l -32 1065 m 211 1065 l 385 1065 l 385 892 l 211 892 l 211 1065 z "},"ì":{"ha":417,"x_min":-19,"x_max":350,"o":"m 347 833 l 347 625 l 278 625 l 278 208 l 347 208 l 347 0 l 0 0 l 0 208 l 69 208 l 69 625 l 0 625 l 0 833 l 347 833 m 325 892 l -19 935 l 11 1106 l 350 1029 l 325 892 z "},"ī":{"ha":417,"x_min":-32,"x_max":385,"o":"m 347 833 l 347 625 l 278 625 l 278 208 l 347 208 l 347 0 l 0 0 l 0 208 l 69 208 l 69 625 l 0 625 l 0 833 l 347 833 m 385 1044 l 385 892 l -32 892 l -32 1044 l 385 1044 z "},"į":{"ha":417,"x_min":0,"x_max":389,"o":"m 347 0 l 0 0 l 0 208 l 69 208 l 69 625 l 0 625 l 0 833 l 347 833 l 347 625 l 278 625 l 278 208 l 347 208 l 347 0 m 333 -28 l 306 -83 l 389 -83 l 389 -194 l 167 -194 l 167 -83 l 194 -28 l 333 -28 z "},"ı":{"ha":417,"x_min":0,"x_max":347,"o":"m 347 833 l 347 625 l 278 625 l 278 208 l 347 208 l 347 0 l 0 0 l 0 208 l 69 208 l 69 625 l 0 625 l 0 833 l 347 833 z "},"ĵ":{"ha":694,"x_min":0,"x_max":660,"o":"m 292 0 l 292 208 l 347 208 l 347 625 l 278 625 l 278 833 l 625 833 l 625 625 l 556 625 l 556 139 l 417 0 l 292 0 m 264 208 l 264 0 l 139 0 l 0 139 l 0 313 l 208 313 l 208 208 l 264 208 m 451 1106 l 660 1029 l 635 892 l 451 942 l 268 892 l 243 1029 l 451 1106 z "},"ķ":{"ha":708,"x_min":0,"x_max":639,"o":"m 278 0 l 0 0 l 0 208 l 69 208 l 69 625 l 0 625 l 0 833 l 278 833 l 278 0 m 306 633 l 306 200 l 417 0 l 639 0 l 639 208 l 542 208 l 425 417 l 542 625 l 639 625 l 639 833 l 417 833 l 306 633 m 440 -39 l 371 -178 l 197 -178 l 232 -39 l 440 -39 z "},"ĺ":{"ha":694,"x_min":0,"x_max":625,"o":"m 306 0 l 306 208 l 417 208 l 417 313 l 625 313 l 625 0 l 306 0 m 278 0 l 0 0 l 0 208 l 69 208 l 69 625 l 0 625 l 0 833 l 347 833 l 347 625 l 278 625 l 278 0 m 3 1026 l 342 1103 l 372 932 l 28 889 l 3 1026 z "},"ľ":{"ha":694,"x_min":0,"x_max":625,"o":"m 417 903 l 625 903 l 625 694 l 556 556 l 431 556 l 472 694 l 417 694 l 417 903 m 306 0 l 306 208 l 417 208 l 417 313 l 625 313 l 625 0 l 306 0 m 278 0 l 0 0 l 0 208 l 69 208 l 69 625 l 0 625 l 0 833 l 347 833 l 347 625 l 278 625 l 278 0 z "},"ļ":{"ha":694,"x_min":0,"x_max":625,"o":"m 306 0 l 306 208 l 417 208 l 417 313 l 625 313 l 625 0 l 306 0 m 278 0 l 0 0 l 0 208 l 69 208 l 69 625 l 0 625 l 0 833 l 347 833 l 347 625 l 278 625 l 278 0 m 433 -39 l 364 -178 l 190 -178 l 225 -39 l 433 -39 z "},"ł":{"ha":694,"x_min":-43,"x_max":625,"o":"m 278 497 l 493 556 l 529 421 l 278 353 l 278 0 l 0 0 l 0 208 l 69 208 l 69 297 l -7 278 l -43 413 l 69 442 l 69 625 l 0 625 l 0 833 l 347 833 l 347 625 l 278 625 l 278 497 m 306 0 l 306 208 l 417 208 l 417 313 l 625 313 l 625 0 l 306 0 z "},"ń":{"ha":764,"x_min":0,"x_max":694,"o":"m 236 833 l 556 208 l 694 208 l 694 0 l 458 0 l 139 625 l 0 625 l 0 833 l 236 833 m 417 540 l 417 833 l 694 833 l 694 625 l 625 625 l 625 236 l 572 236 l 417 540 m 69 597 l 69 208 l 0 208 l 0 0 l 278 0 l 278 293 l 122 597 l 69 597 m 154 1026 l 493 1103 l 524 932 l 179 889 l 154 1026 z "},"ň":{"ha":764,"x_min":0,"x_max":694,"o":"m 236 833 l 556 208 l 694 208 l 694 0 l 458 0 l 139 625 l 0 625 l 0 833 l 236 833 m 417 540 l 417 833 l 694 833 l 694 625 l 625 625 l 625 236 l 572 236 l 417 540 m 69 597 l 69 208 l 0 208 l 0 0 l 278 0 l 278 293 l 122 597 l 69 597 m 139 954 l 164 1092 l 347 1042 l 531 1092 l 556 954 l 347 878 l 139 954 z "},"ņ":{"ha":764,"x_min":0,"x_max":694,"o":"m 236 833 l 556 208 l 694 208 l 694 0 l 458 0 l 139 625 l 0 625 l 0 833 l 236 833 m 417 540 l 417 833 l 694 833 l 694 625 l 625 625 l 625 236 l 572 236 l 417 540 m 69 597 l 69 208 l 0 208 l 0 0 l 278 0 l 278 293 l 122 597 l 69 597 m 468 -39 l 399 -178 l 225 -178 l 260 -39 l 468 -39 z "},"ñ":{"ha":764,"x_min":0,"x_max":694,"o":"m 236 833 l 556 208 l 694 208 l 694 0 l 458 0 l 139 625 l 0 625 l 0 833 l 236 833 m 417 540 l 417 833 l 694 833 l 694 625 l 625 625 l 625 236 l 572 236 l 417 540 m 69 597 l 69 208 l 0 208 l 0 0 l 278 0 l 278 293 l 122 597 l 69 597 m 568 968 l 464 892 l 256 940 l 151 892 l 126 1029 l 231 1106 l 439 1057 l 543 1106 l 568 968 z "},"ó":{"ha":660,"x_min":0,"x_max":590,"o":"m 451 833 l 590 694 l 590 139 l 451 0 l 308 0 l 308 208 l 382 208 l 382 625 l 308 625 l 308 833 l 451 833 m 139 0 l 0 139 l 0 694 l 139 833 l 281 833 l 281 625 l 208 625 l 208 208 l 281 208 l 281 0 l 139 0 m 125 1026 l 464 1103 l 494 932 l 150 889 l 125 1026 z "},"ô":{"ha":660,"x_min":0,"x_max":590,"o":"m 451 833 l 590 694 l 590 139 l 451 0 l 308 0 l 308 208 l 382 208 l 382 625 l 308 625 l 308 833 l 451 833 m 139 0 l 0 139 l 0 694 l 139 833 l 281 833 l 281 625 l 208 625 l 208 208 l 281 208 l 281 0 l 139 0 m 297 1106 l 506 1029 l 481 892 l 297 942 l 114 892 l 89 1029 l 297 1106 z "},"ö":{"ha":660,"x_min":0,"x_max":590,"o":"m 451 833 l 590 694 l 590 139 l 451 0 l 308 0 l 308 208 l 382 208 l 382 625 l 308 625 l 308 833 l 451 833 m 139 0 l 0 139 l 0 694 l 139 833 l 281 833 l 281 625 l 208 625 l 208 208 l 281 208 l 281 0 l 139 0 m 89 1065 l 263 1065 l 263 892 l 89 892 l 89 1065 m 332 1065 l 506 1065 l 506 892 l 332 892 l 332 1065 z "},"ò":{"ha":660,"x_min":0,"x_max":590,"o":"m 451 833 l 590 694 l 590 139 l 451 0 l 308 0 l 308 208 l 382 208 l 382 625 l 308 625 l 308 833 l 451 833 m 139 0 l 0 139 l 0 694 l 139 833 l 281 833 l 281 625 l 208 625 l 208 208 l 281 208 l 281 0 l 139 0 m 446 892 l 101 935 l 132 1106 l 471 1029 l 446 892 z "},"ő":{"ha":660,"x_min":0,"x_max":590,"o":"m 451 833 l 590 694 l 590 139 l 451 0 l 308 0 l 308 208 l 382 208 l 382 625 l 308 625 l 308 833 l 451 833 m 139 0 l 0 139 l 0 694 l 139 833 l 281 833 l 281 625 l 208 625 l 208 208 l 281 208 l 281 0 l 139 0 m 181 1065 l 333 1065 l 271 892 l 118 892 l 181 1065 m 382 1065 l 535 1065 l 472 892 l 319 892 l 382 1065 z "},"ø":{"ha":660,"x_min":-50,"x_max":640,"o":"m 382 208 l 382 375 l 572 713 l 590 694 l 590 139 l 451 0 l 169 0 l 288 208 l 382 208 m 208 625 l 208 458 l 18 121 l 0 139 l 0 694 l 139 833 l 421 833 l 303 625 l 208 625 m 71 -122 l -50 -56 l 521 956 l 640 888 l 71 -122 z "},"õ":{"ha":660,"x_min":0,"x_max":590,"o":"m 451 833 l 590 694 l 590 139 l 451 0 l 308 0 l 308 208 l 382 208 l 382 625 l 308 625 l 308 833 l 451 833 m 139 0 l 0 139 l 0 694 l 139 833 l 281 833 l 281 625 l 208 625 l 208 208 l 281 208 l 281 0 l 139 0 m 518 968 l 414 892 l 206 940 l 101 892 l 76 1029 l 181 1106 l 389 1057 l 493 1106 l 518 968 z "},"ŕ":{"ha":742,"x_min":0,"x_max":672,"o":"m 306 486 l 417 486 l 417 625 l 306 625 l 306 833 l 486 833 l 625 694 l 625 451 l 556 382 l 603 208 l 672 208 l 672 0 l 444 0 l 368 278 l 306 278 l 306 486 m 278 0 l 0 0 l 0 208 l 69 208 l 69 625 l 0 625 l 0 833 l 278 833 l 278 0 m 149 1026 l 488 1103 l 518 932 l 174 889 l 149 1026 z "},"ř":{"ha":742,"x_min":0,"x_max":672,"o":"m 306 486 l 417 486 l 417 625 l 306 625 l 306 833 l 486 833 l 625 694 l 625 451 l 556 382 l 603 208 l 672 208 l 672 0 l 444 0 l 368 278 l 306 278 l 306 486 m 278 0 l 0 0 l 0 208 l 69 208 l 69 625 l 0 625 l 0 833 l 278 833 l 278 0 m 128 954 l 153 1092 l 336 1042 l 519 1092 l 544 954 l 336 878 l 128 954 z "},"ŗ":{"ha":742,"x_min":0,"x_max":672,"o":"m 306 486 l 417 486 l 417 625 l 306 625 l 306 833 l 486 833 l 625 694 l 625 451 l 556 382 l 603 208 l 672 208 l 672 0 l 444 0 l 368 278 l 306 278 l 306 486 m 278 0 l 0 0 l 0 208 l 69 208 l 69 625 l 0 625 l 0 833 l 278 833 l 278 0 m 457 -39 l 388 -178 l 214 -178 l 249 -39 l 457 -39 z "},"ś":{"ha":639,"x_min":0,"x_max":569,"o":"m 299 833 l 569 833 l 569 556 l 361 556 l 361 625 l 299 625 l 299 833 m 271 0 l 0 0 l 0 278 l 208 278 l 208 208 l 271 208 l 271 0 m 299 208 l 361 208 l 361 285 l 0 396 l 0 694 l 139 833 l 271 833 l 271 625 l 208 625 l 208 549 l 569 438 l 569 139 l 431 0 l 299 0 l 299 208 m 129 1026 l 468 1103 l 499 932 l 154 889 l 129 1026 z "},"š":{"ha":639,"x_min":0,"x_max":569,"o":"m 299 833 l 569 833 l 569 556 l 361 556 l 361 625 l 299 625 l 299 833 m 271 0 l 0 0 l 0 278 l 208 278 l 208 208 l 271 208 l 271 0 m 299 208 l 361 208 l 361 285 l 0 396 l 0 694 l 139 833 l 271 833 l 271 625 l 208 625 l 208 549 l 569 438 l 569 139 l 431 0 l 299 0 l 299 208 m 79 954 l 104 1092 l 288 1042 l 471 1092 l 496 954 l 288 878 l 79 954 z "},"ş":{"ha":639,"x_min":0,"x_max":569,"o":"m 299 833 l 569 833 l 569 556 l 361 556 l 361 625 l 299 625 l 299 833 m 271 0 l 0 0 l 0 278 l 208 278 l 208 208 l 271 208 l 271 0 m 299 208 l 361 208 l 361 285 l 0 396 l 0 694 l 139 833 l 271 833 l 271 625 l 208 625 l 208 549 l 569 438 l 569 139 l 431 0 l 299 0 l 299 208 m 406 -39 l 336 -178 l 163 -178 l 197 -39 l 406 -39 z "},"ŝ":{"ha":639,"x_min":0,"x_max":569,"o":"m 299 833 l 569 833 l 569 556 l 361 556 l 361 625 l 299 625 l 299 833 m 271 0 l 0 0 l 0 278 l 208 278 l 208 208 l 271 208 l 271 0 m 299 208 l 361 208 l 361 285 l 0 396 l 0 694 l 139 833 l 271 833 l 271 625 l 208 625 l 208 549 l 569 438 l 569 139 l 431 0 l 299 0 l 299 208 m 288 1106 l 496 1029 l 471 892 l 288 942 l 104 892 l 79 1029 l 288 1106 z "},"ș":{"ha":639,"x_min":0,"x_max":569,"o":"m 299 833 l 569 833 l 569 556 l 361 556 l 361 625 l 299 625 l 299 833 m 271 0 l 0 0 l 0 278 l 208 278 l 208 208 l 271 208 l 271 0 m 299 208 l 361 208 l 361 285 l 0 396 l 0 694 l 139 833 l 271 833 l 271 625 l 208 625 l 208 549 l 569 438 l 569 139 l 431 0 l 299 0 l 299 208 m 406 -39 l 336 -178 l 163 -178 l 197 -39 l 406 -39 z "},"ť":{"ha":764,"x_min":0,"x_max":694,"o":"m 215 833 l 215 625 l 174 625 l 174 521 l 0 521 l 0 833 l 215 833 m 479 625 l 479 833 l 694 833 l 694 521 l 521 521 l 521 625 l 479 625 m 451 833 l 451 208 l 521 208 l 521 0 l 174 0 l 174 208 l 243 208 l 243 833 l 451 833 m 139 954 l 164 1092 l 347 1042 l 531 1092 l 556 954 l 347 878 l 139 954 z "},"ţ":{"ha":764,"x_min":0,"x_max":694,"o":"m 215 833 l 215 625 l 174 625 l 174 521 l 0 521 l 0 833 l 215 833 m 479 625 l 479 833 l 694 833 l 694 521 l 521 521 l 521 625 l 479 625 m 451 833 l 451 208 l 521 208 l 521 0 l 174 0 l 174 208 l 243 208 l 243 833 l 451 833 m 468 -39 l 399 -178 l 225 -178 l 260 -39 l 468 -39 z "},"ú":{"ha":799,"x_min":0,"x_max":729,"o":"m 378 0 l 378 208 l 451 208 l 451 833 l 729 833 l 729 625 l 660 625 l 660 139 l 521 0 l 378 0 m 350 0 l 208 0 l 69 139 l 69 625 l 0 625 l 0 833 l 278 833 l 278 208 l 350 208 l 350 0 m 161 1026 l 500 1103 l 531 932 l 186 889 l 161 1026 z "},"ŭ":{"ha":799,"x_min":0,"x_max":729,"o":"m 378 0 l 378 208 l 451 208 l 451 833 l 729 833 l 729 625 l 660 625 l 660 139 l 521 0 l 378 0 m 350 0 l 208 0 l 69 139 l 69 625 l 0 625 l 0 833 l 278 833 l 278 208 l 350 208 l 350 0 m 156 954 l 181 1092 l 364 1042 l 547 1092 l 572 954 l 364 878 l 156 954 z "},"û":{"ha":799,"x_min":0,"x_max":729,"o":"m 378 0 l 378 208 l 451 208 l 451 833 l 729 833 l 729 625 l 660 625 l 660 139 l 521 0 l 378 0 m 350 0 l 208 0 l 69 139 l 69 625 l 0 625 l 0 833 l 278 833 l 278 208 l 350 208 l 350 0 m 364 1106 l 572 1029 l 547 892 l 364 942 l 181 892 l 156 1029 l 364 1106 z "},"ü":{"ha":799,"x_min":0,"x_max":729,"o":"m 378 0 l 378 208 l 451 208 l 451 833 l 729 833 l 729 625 l 660 625 l 660 139 l 521 0 l 378 0 m 350 0 l 208 0 l 69 139 l 69 625 l 0 625 l 0 833 l 278 833 l 278 208 l 350 208 l 350 0 m 156 1065 l 329 1065 l 329 892 l 156 892 l 156 1065 m 399 1065 l 572 1065 l 572 892 l 399 892 l 399 1065 z "},"ű":{"ha":799,"x_min":0,"x_max":729,"o":"m 378 0 l 378 208 l 451 208 l 451 833 l 729 833 l 729 625 l 660 625 l 660 139 l 521 0 l 378 0 m 350 0 l 208 0 l 69 139 l 69 625 l 0 625 l 0 833 l 278 833 l 278 208 l 350 208 l 350 0 m 250 1065 l 403 1065 l 340 892 l 188 892 l 250 1065 m 451 1065 l 604 1065 l 542 892 l 389 892 l 451 1065 z "},"ù":{"ha":799,"x_min":0,"x_max":729,"o":"m 378 0 l 378 208 l 451 208 l 451 833 l 729 833 l 729 625 l 660 625 l 660 139 l 521 0 l 378 0 m 350 0 l 208 0 l 69 139 l 69 625 l 0 625 l 0 833 l 278 833 l 278 208 l 350 208 l 350 0 m 543 892 l 199 935 l 229 1106 l 568 1029 l 543 892 z "},"ū":{"ha":799,"x_min":0,"x_max":729,"o":"m 378 0 l 378 208 l 451 208 l 451 833 l 729 833 l 729 625 l 660 625 l 660 139 l 521 0 l 378 0 m 350 0 l 208 0 l 69 139 l 69 625 l 0 625 l 0 833 l 278 833 l 278 208 l 350 208 l 350 0 m 572 1043 l 572 892 l 156 892 l 156 1043 l 572 1043 z "},"ų":{"ha":799,"x_min":0,"x_max":729,"o":"m 507 -28 l 479 -83 l 563 -83 l 563 -194 l 340 -194 l 340 -83 l 368 -28 l 507 -28 m 378 0 l 378 208 l 451 208 l 451 833 l 729 833 l 729 625 l 660 625 l 660 139 l 521 0 l 378 0 m 350 0 l 208 0 l 69 139 l 69 625 l 0 625 l 0 833 l 278 833 l 278 208 l 350 208 l 350 0 z "},"ů":{"ha":799,"x_min":0,"x_max":729,"o":"m 378 0 l 378 208 l 451 208 l 451 833 l 729 833 l 729 625 l 660 625 l 660 139 l 521 0 l 378 0 m 350 0 l 208 0 l 69 139 l 69 625 l 0 625 l 0 833 l 278 833 l 278 208 l 350 208 l 350 0 m 294 875 l 225 944 l 225 1083 l 294 1153 l 433 1153 l 503 1083 l 503 944 l 433 875 l 294 875 m 329 979 l 399 979 l 399 1049 l 329 1049 l 329 979 z "},"ŵ":{"ha":1097,"x_min":0,"x_max":1028,"o":"m 769 0 l 726 342 l 772 833 l 1028 833 l 1028 625 l 958 625 l 885 0 l 769 0 m 740 0 l 579 0 l 514 556 l 449 0 l 363 0 l 331 339 l 394 833 l 633 833 l 740 0 m 333 0 l 143 0 l 69 625 l 0 625 l 0 833 l 256 833 l 333 0 m 514 1106 l 722 1029 l 697 892 l 514 942 l 331 892 l 306 1029 l 514 1106 z "},"ý":{"ha":736,"x_min":0,"x_max":667,"o":"m 438 446 l 438 208 l 507 208 l 507 0 l 160 0 l 160 208 l 229 208 l 229 386 l 97 625 l 0 625 l 0 833 l 222 833 l 438 446 m 469 446 l 569 625 l 667 625 l 667 833 l 444 833 l 350 663 l 469 446 m 147 1026 l 486 1103 l 517 932 l 172 889 l 147 1026 z "},"ŷ":{"ha":736,"x_min":0,"x_max":667,"o":"m 438 446 l 438 208 l 507 208 l 507 0 l 160 0 l 160 208 l 229 208 l 229 386 l 97 625 l 0 625 l 0 833 l 222 833 l 438 446 m 469 446 l 569 625 l 667 625 l 667 833 l 444 833 l 350 663 l 469 446 m 333 1106 l 542 1029 l 517 892 l 333 942 l 150 892 l 125 1029 l 333 1106 z "},"ÿ":{"ha":736,"x_min":0,"x_max":667,"o":"m 438 446 l 438 208 l 507 208 l 507 0 l 160 0 l 160 208 l 229 208 l 229 386 l 97 625 l 0 625 l 0 833 l 222 833 l 438 446 m 469 446 l 569 625 l 667 625 l 667 833 l 444 833 l 350 663 l 469 446 m 125 1065 l 299 1065 l 299 892 l 125 892 l 125 1065 m 368 1065 l 542 1065 l 542 892 l 368 892 l 368 1065 z "},"ź":{"ha":667,"x_min":0,"x_max":597,"o":"m 101 0 l 279 208 l 389 208 l 389 278 l 597 278 l 597 0 l 101 0 m 496 833 l 318 625 l 208 625 l 208 556 l 0 556 l 0 833 l 496 833 m 64 0 l 0 0 l 0 208 l 533 833 l 597 833 l 597 625 l 64 0 m 135 1026 l 474 1103 l 504 932 l 160 889 l 135 1026 z "},"ž":{"ha":667,"x_min":0,"x_max":597,"o":"m 101 0 l 279 208 l 389 208 l 389 278 l 597 278 l 597 0 l 101 0 m 496 833 l 318 625 l 208 625 l 208 556 l 0 556 l 0 833 l 496 833 m 64 0 l 0 0 l 0 208 l 533 833 l 597 833 l 597 625 l 64 0 m 93 954 l 118 1092 l 301 1042 l 485 1092 l 510 954 l 301 878 l 93 954 z "},"ż":{"ha":667,"x_min":0,"x_max":597,"o":"m 101 0 l 279 208 l 389 208 l 389 278 l 597 278 l 597 0 l 101 0 m 496 833 l 318 625 l 208 625 l 208 556 l 0 556 l 0 833 l 496 833 m 64 0 l 0 0 l 0 208 l 533 833 l 597 833 l 597 625 l 64 0 m 214 1065 l 388 1065 l 388 892 l 214 892 l 214 1065 z "},"Ч":{"ha":764,"x_min":0,"x_max":694,"o":"m 417 833 l 694 833 l 694 625 l 625 625 l 625 208 l 694 208 l 694 0 l 347 0 l 347 208 l 417 208 l 417 833 m 389 313 l 208 313 l 69 451 l 69 625 l 0 625 l 0 833 l 278 833 l 278 521 l 389 521 l 389 313 z "},"Ð":{"ha":729,"x_min":0,"x_max":660,"o":"m 306 208 l 451 208 l 451 625 l 306 625 l 306 833 l 521 833 l 660 694 l 660 139 l 521 0 l 306 0 l 306 208 m 278 333 l 278 0 l 0 0 l 0 208 l 69 208 l 69 333 l 0 333 l 0 500 l 69 500 l 69 625 l 0 625 l 0 833 l 278 833 l 278 500 l 347 500 l 347 333 l 278 333 z "},"Þ":{"ha":694,"x_min":0,"x_max":625,"o":"m 306 486 l 306 694 l 486 694 l 625 556 l 625 278 l 486 139 l 306 139 l 306 347 l 417 347 l 417 486 l 306 486 m 278 0 l 0 0 l 0 208 l 69 208 l 69 625 l 0 625 l 0 833 l 278 833 l 278 0 z "},"\"":{"ha":556,"x_min":0,"x_max":486,"o":"m 278 972 l 486 972 l 486 764 l 417 625 l 292 625 l 333 764 l 278 764 l 278 972 m 0 972 l 208 972 l 208 764 l 139 625 l 14 625 l 56 764 l 0 764 l 0 972 z "},"“":{"ha":556,"x_min":0,"x_max":486,"o":"m 208 625 l 0 625 l 0 833 l 69 972 l 194 972 l 153 833 l 208 833 l 208 625 m 486 625 l 278 625 l 278 833 l 347 972 l 472 972 l 431 833 l 486 833 l 486 625 z "},"”":{"ha":556,"x_min":0,"x_max":486,"o":"m 278 972 l 486 972 l 486 764 l 417 625 l 292 625 l 333 764 l 278 764 l 278 972 m 0 972 l 208 972 l 208 764 l 139 625 l 14 625 l 56 764 l 0 764 l 0 972 z "},"’":{"ha":278,"x_min":0,"x_max":208,"o":"m 0 972 l 208 972 l 208 764 l 139 625 l 14 625 l 56 764 l 0 764 l 0 972 z "},"‘":{"ha":278,"x_min":0,"x_max":208,"o":"m 208 625 l 0 625 l 0 833 l 69 972 l 194 972 l 153 833 l 208 833 l 208 625 z "},",":{"ha":278,"x_min":0,"x_max":208,"o":"m 0 208 l 208 208 l 208 0 l 139 -139 l 14 -139 l 56 0 l 0 0 l 0 208 z "},".":{"ha":278,"x_min":0,"x_max":208,"o":"m 0 208 l 208 208 l 208 0 l 0 0 l 0 208 z "},";":{"ha":278,"x_min":0,"x_max":208,"o":"m 0 208 l 208 208 l 208 0 l 139 -139 l 14 -139 l 56 0 l 0 0 l 0 208 m 0 625 l 208 625 l 208 417 l 0 417 l 0 625 z "},":":{"ha":278,"x_min":0,"x_max":208,"o":"m 0 208 l 208 208 l 208 0 l 0 0 l 0 208 m 0 625 l 208 625 l 208 417 l 0 417 l 0 625 z "},"$":{"ha":639,"x_min":0,"x_max":569,"o":"m 569 139 l 431 0 l 319 0 l 319 -69 l 250 -69 l 250 0 l 0 0 l 0 278 l 208 278 l 208 208 l 250 208 l 250 318 l 0 396 l 0 694 l 139 833 l 250 833 l 250 903 l 319 903 l 319 833 l 569 833 l 569 556 l 361 556 l 361 625 l 319 625 l 319 514 l 569 438 l 569 139 m 208 549 l 250 536 l 250 625 l 208 625 l 208 549 m 319 297 l 319 208 l 361 208 l 361 285 l 319 297 z "},"[":{"ha":375,"x_min":0,"x_max":306,"o":"m 306 1042 l 306 833 l 208 833 l 208 0 l 306 0 l 306 -208 l 0 -208 l 0 1042 l 306 1042 z "},"]":{"ha":375,"x_min":0,"x_max":306,"o":"m 306 1042 l 306 -208 l 0 -208 l 0 0 l 97 0 l 97 833 l 0 833 l 0 1042 l 306 1042 z "},"|":{"ha":278,"x_min":0,"x_max":208,"o":"m 208 1042 l 208 -208 l 0 -208 l 0 1042 l 208 1042 z "},"а":{"ha":764,"x_min":0,"x_max":694,"o":"m 247 0 l 0 0 l 0 208 l 69 208 l 168 833 l 285 833 l 333 535 l 247 0 m 336 375 l 388 375 l 314 833 l 526 833 l 625 208 l 694 208 l 694 0 l 447 0 l 414 208 l 310 208 l 336 375 z "},"б":{"ha":694,"x_min":0,"x_max":625,"o":"m 306 208 l 417 208 l 417 347 l 306 347 l 306 556 l 486 556 l 625 417 l 625 139 l 486 0 l 306 0 l 306 208 m 0 0 l 0 208 l 69 208 l 69 625 l 0 625 l 0 833 l 278 833 l 278 0 l 0 0 m 306 833 l 625 833 l 625 625 l 306 625 l 306 833 z "},"в":{"ha":694,"x_min":0,"x_max":625,"o":"m 417 208 l 417 347 l 306 347 l 306 486 l 417 486 l 417 625 l 306 625 l 306 833 l 486 833 l 625 694 l 625 486 l 556 417 l 625 347 l 625 139 l 486 0 l 306 0 l 306 208 l 417 208 m 278 0 l 0 0 l 0 208 l 69 208 l 69 625 l 0 625 l 0 833 l 278 833 l 278 0 z "},"г":{"ha":694,"x_min":0,"x_max":625,"o":"m 278 208 l 347 208 l 347 0 l 0 0 l 0 208 l 69 208 l 69 625 l 0 625 l 0 833 l 278 833 l 278 208 m 306 833 l 625 833 l 625 521 l 417 521 l 417 625 l 306 625 l 306 833 z "},"д":{"ha":799,"x_min":0,"x_max":729,"o":"m 451 833 l 729 833 l 729 625 l 660 625 l 660 208 l 729 208 l 729 -69 l 521 -69 l 521 0 l 451 0 l 451 833 m 208 0 l 208 -69 l 0 -69 l 0 208 l 69 208 l 168 833 l 424 833 l 424 625 l 347 625 l 281 208 l 424 208 l 424 0 l 208 0 z "},"е":{"ha":694,"x_min":0,"x_max":625,"o":"m 306 486 l 417 486 l 417 347 l 306 347 l 306 486 m 278 0 l 0 0 l 0 208 l 69 208 l 69 625 l 0 625 l 0 833 l 278 833 l 278 0 m 306 208 l 417 208 l 417 313 l 625 313 l 625 0 l 306 0 l 306 208 m 306 833 l 625 833 l 625 521 l 417 521 l 417 625 l 306 625 l 306 833 z "},"ж":{"ha":972,"x_min":0,"x_max":903,"o":"m 208 0 l 0 0 l 0 208 l 83 208 l 200 417 l 83 625 l 0 625 l 0 833 l 208 833 l 319 633 l 319 200 l 208 0 m 347 833 l 556 833 l 556 0 l 347 0 l 347 833 m 694 833 l 903 833 l 903 625 l 819 625 l 703 417 l 819 208 l 903 208 l 903 0 l 694 0 l 583 200 l 583 633 l 694 833 z "},"з":{"ha":639,"x_min":0,"x_max":569,"o":"m 271 625 l 208 625 l 208 521 l 0 521 l 0 694 l 139 833 l 271 833 l 271 625 m 271 0 l 139 0 l 0 139 l 0 313 l 208 313 l 208 208 l 271 208 l 271 0 m 361 208 l 361 347 l 208 347 l 208 486 l 361 486 l 361 625 l 299 625 l 299 833 l 431 833 l 569 694 l 569 486 l 500 417 l 569 347 l 569 139 l 431 0 l 299 0 l 299 208 l 361 208 z "},"и":{"ha":764,"x_min":0,"x_max":694,"o":"m 694 833 l 694 625 l 556 625 l 236 0 l 0 0 l 0 208 l 139 208 l 458 833 l 694 833 m 122 236 l 69 236 l 69 625 l 0 625 l 0 833 l 278 833 l 278 540 l 122 236 m 625 597 l 625 208 l 694 208 l 694 0 l 417 0 l 417 293 l 572 597 l 625 597 z "},"й":{"ha":764,"x_min":0,"x_max":694,"o":"m 139 965 l 164 1103 l 347 1053 l 531 1103 l 556 965 l 347 889 l 139 965 m 694 833 l 694 625 l 556 625 l 236 0 l 0 0 l 0 208 l 139 208 l 458 833 l 694 833 m 122 236 l 69 236 l 69 625 l 0 625 l 0 833 l 278 833 l 278 540 l 122 236 m 625 597 l 625 208 l 694 208 l 694 0 l 417 0 l 417 293 l 572 597 l 625 597 z "},"к":{"ha":708,"x_min":0,"x_max":639,"o":"m 278 0 l 0 0 l 0 208 l 69 208 l 69 625 l 0 625 l 0 833 l 278 833 l 278 0 m 306 633 l 306 200 l 417 0 l 639 0 l 639 208 l 542 208 l 425 417 l 542 625 l 639 625 l 639 833 l 417 833 l 306 633 z "},"л":{"ha":799,"x_min":0,"x_max":729,"o":"m 424 625 l 347 625 l 247 0 l 0 0 l 0 208 l 69 208 l 168 833 l 424 833 l 424 625 m 451 833 l 729 833 l 729 625 l 660 625 l 660 208 l 729 208 l 729 0 l 382 0 l 382 208 l 451 208 l 451 833 z "},"м":{"ha":903,"x_min":0,"x_max":833,"o":"m 417 146 l 151 625 l 0 625 l 0 833 l 236 833 l 518 328 l 417 146 m 433 538 l 597 833 l 833 833 l 833 625 l 764 625 l 764 208 l 833 208 l 833 0 l 556 0 l 556 317 l 433 538 m 135 597 l 278 338 l 278 0 l 0 0 l 0 208 l 69 208 l 69 597 l 135 597 z "},"н":{"ha":764,"x_min":0,"x_max":694,"o":"m 306 521 l 417 521 l 417 833 l 694 833 l 694 625 l 625 625 l 625 208 l 694 208 l 694 0 l 417 0 l 417 313 l 306 313 l 306 521 m 278 0 l 0 0 l 0 208 l 69 208 l 69 625 l 0 625 l 0 833 l 278 833 l 278 0 z "},"о":{"ha":660,"x_min":0,"x_max":590,"o":"m 451 833 l 590 694 l 590 139 l 451 0 l 308 0 l 308 208 l 382 208 l 382 625 l 308 625 l 308 833 l 451 833 m 139 0 l 0 139 l 0 694 l 139 833 l 281 833 l 281 625 l 208 625 l 208 208 l 281 208 l 281 0 l 139 0 z "},"п":{"ha":764,"x_min":0,"x_max":694,"o":"m 278 0 l 0 0 l 0 208 l 69 208 l 69 625 l 0 625 l 0 833 l 278 833 l 278 0 m 306 833 l 694 833 l 694 625 l 625 625 l 625 208 l 694 208 l 694 0 l 417 0 l 417 625 l 306 625 l 306 833 z "},"р":{"ha":694,"x_min":0,"x_max":625,"o":"m 278 208 l 347 208 l 347 0 l 0 0 l 0 208 l 69 208 l 69 625 l 0 625 l 0 833 l 278 833 l 278 208 m 306 486 l 417 486 l 417 625 l 306 625 l 306 833 l 486 833 l 625 694 l 625 417 l 486 278 l 306 278 l 306 486 z "},"с":{"ha":660,"x_min":0,"x_max":590,"o":"m 308 625 l 308 833 l 590 833 l 590 521 l 382 521 l 382 625 l 308 625 m 308 208 l 308 0 l 590 0 l 590 313 l 382 313 l 382 208 l 308 208 m 281 0 l 281 208 l 208 208 l 208 625 l 281 625 l 281 833 l 139 833 l 0 694 l 0 139 l 139 0 l 281 0 z "},"т":{"ha":764,"x_min":0,"x_max":694,"o":"m 215 833 l 215 625 l 174 625 l 174 521 l 0 521 l 0 833 l 215 833 m 479 625 l 479 833 l 694 833 l 694 521 l 521 521 l 521 625 l 479 625 m 451 833 l 451 208 l 521 208 l 521 0 l 174 0 l 174 208 l 243 208 l 243 833 l 451 833 z "},"у":{"ha":736,"x_min":0,"x_max":667,"o":"m 438 446 l 438 208 l 507 208 l 507 0 l 160 0 l 160 208 l 229 208 l 229 386 l 97 625 l 0 625 l 0 833 l 222 833 l 438 446 m 469 446 l 569 625 l 667 625 l 667 833 l 444 833 l 350 663 l 469 446 z "},"х":{"ha":736,"x_min":0,"x_max":667,"o":"m 350 663 l 444 833 l 667 833 l 667 625 l 569 625 l 469 446 l 350 663 m 569 208 l 667 208 l 667 0 l 444 0 l 97 625 l 0 625 l 0 833 l 222 833 l 569 208 m 317 171 l 222 0 l 0 0 l 0 208 l 97 208 l 197 388 l 317 171 z "},"ц":{"ha":764,"x_min":0,"x_max":694,"o":"m 417 0 l 417 833 l 694 833 l 694 625 l 625 625 l 625 208 l 694 208 l 694 -69 l 486 -69 l 486 0 l 417 0 m 389 0 l 0 0 l 0 208 l 69 208 l 69 625 l 0 625 l 0 833 l 278 833 l 278 208 l 389 208 l 389 0 z "},"ч":{"ha":764,"x_min":0,"x_max":694,"o":"m 417 833 l 694 833 l 694 625 l 625 625 l 625 208 l 694 208 l 694 0 l 347 0 l 347 208 l 417 208 l 417 833 m 389 313 l 208 313 l 69 451 l 69 625 l 0 625 l 0 833 l 278 833 l 278 521 l 389 521 l 389 313 z "},"ш":{"ha":1111,"x_min":0,"x_max":1042,"o":"m 653 0 l 653 208 l 764 208 l 764 833 l 1042 833 l 1042 625 l 972 625 l 972 208 l 1042 208 l 1042 0 l 653 0 m 625 0 l 417 0 l 417 833 l 625 833 l 625 0 m 389 0 l 0 0 l 0 208 l 69 208 l 69 625 l 0 625 l 0 833 l 278 833 l 278 208 l 389 208 l 389 0 z "},"щ":{"ha":1111,"x_min":0,"x_max":1042,"o":"m 653 0 l 653 208 l 764 208 l 764 833 l 1042 833 l 1042 625 l 972 625 l 972 208 l 1042 208 l 1042 -69 l 833 -69 l 833 0 l 653 0 m 625 0 l 417 0 l 417 833 l 625 833 l 625 0 m 389 0 l 0 0 l 0 208 l 69 208 l 69 625 l 0 625 l 0 833 l 278 833 l 278 208 l 389 208 l 389 0 z "},"ъ":{"ha":833,"x_min":0,"x_max":764,"o":"m 139 0 l 139 208 l 208 208 l 208 833 l 486 833 l 486 625 l 417 625 l 417 0 l 139 0 m 556 208 l 556 347 l 444 347 l 444 556 l 625 556 l 764 417 l 764 139 l 625 0 l 444 0 l 444 208 l 556 208 m 0 625 l 0 833 l 181 833 l 181 625 l 0 625 z "},"ы":{"ha":1111,"x_min":0,"x_max":1042,"o":"m 0 0 l 0 208 l 69 208 l 69 625 l 0 625 l 0 833 l 347 833 l 347 625 l 278 625 l 278 0 l 0 0 m 417 208 l 417 347 l 306 347 l 306 556 l 486 556 l 625 417 l 625 139 l 486 0 l 306 0 l 306 208 l 417 208 m 1042 833 l 1042 625 l 972 625 l 972 208 l 1042 208 l 1042 0 l 694 0 l 694 208 l 764 208 l 764 625 l 694 625 l 694 833 l 1042 833 z "},"ь":{"ha":694,"x_min":0,"x_max":625,"o":"m 0 0 l 0 208 l 69 208 l 69 625 l 0 625 l 0 833 l 347 833 l 347 625 l 278 625 l 278 0 l 0 0 m 417 208 l 417 347 l 306 347 l 306 556 l 486 556 l 625 417 l 625 139 l 486 0 l 306 0 l 306 208 l 417 208 z "},"э":{"ha":639,"x_min":0,"x_max":569,"o":"m 271 625 l 208 625 l 208 521 l 0 521 l 0 694 l 139 833 l 271 833 l 271 625 m 271 0 l 139 0 l 0 139 l 0 313 l 208 313 l 208 208 l 271 208 l 271 0 m 361 208 l 361 347 l 208 347 l 208 486 l 361 486 l 361 625 l 299 625 l 299 833 l 431 833 l 569 694 l 569 139 l 431 0 l 299 0 l 299 208 l 361 208 z "},"я":{"ha":742,"x_min":0,"x_max":672,"o":"m 367 278 l 304 278 l 228 0 l 0 0 l 0 208 l 69 208 l 117 382 l 47 451 l 47 694 l 186 833 l 367 833 l 367 625 l 256 625 l 256 486 l 367 486 l 367 278 m 394 833 l 672 833 l 672 625 l 603 625 l 603 208 l 672 208 l 672 0 l 394 0 l 394 833 z "},"ё":{"ha":694,"x_min":0,"x_max":625,"o":"m 306 486 l 417 486 l 417 347 l 306 347 l 306 486 m 278 0 l 0 0 l 0 208 l 69 208 l 69 625 l 0 625 l 0 833 l 278 833 l 278 0 m 306 208 l 417 208 l 417 313 l 625 313 l 625 0 l 306 0 l 306 208 m 306 833 l 625 833 l 625 521 l 417 521 l 417 625 l 306 625 l 306 833 m 104 1065 l 278 1065 l 278 892 l 104 892 l 104 1065 m 347 1065 l 521 1065 l 521 892 l 347 892 l 347 1065 z "},"Ё":{"ha":694,"x_min":0,"x_max":625,"o":"m 306 486 l 417 486 l 417 347 l 306 347 l 306 486 m 278 0 l 0 0 l 0 208 l 69 208 l 69 625 l 0 625 l 0 833 l 278 833 l 278 0 m 306 208 l 417 208 l 417 313 l 625 313 l 625 0 l 306 0 l 306 208 m 306 833 l 625 833 l 625 521 l 417 521 l 417 625 l 306 625 l 306 833 m 104 1065 l 278 1065 l 278 892 l 104 892 l 104 1065 m 347 1065 l 521 1065 l 521 892 l 347 892 l 347 1065 z "},"љ":{"ha":1076,"x_min":0,"x_max":1007,"o":"m 424 625 l 347 625 l 247 0 l 0 0 l 0 208 l 69 208 l 168 833 l 424 833 l 424 625 m 688 208 l 799 208 l 799 347 l 688 347 l 688 556 l 868 556 l 1007 417 l 1007 139 l 868 0 l 688 0 l 688 208 m 660 0 l 451 0 l 451 833 l 729 833 l 729 625 l 660 625 l 660 0 z "},"њ":{"ha":1042,"x_min":0,"x_max":972,"o":"m 278 0 l 0 0 l 0 208 l 69 208 l 69 625 l 0 625 l 0 833 l 278 833 l 278 0 m 417 0 l 417 313 l 306 313 l 306 521 l 417 521 l 417 833 l 694 833 l 694 625 l 625 625 l 625 0 l 417 0 m 764 208 l 764 347 l 653 347 l 653 556 l 833 556 l 972 417 l 972 139 l 833 0 l 653 0 l 653 208 l 764 208 z "},"/":{"ha":556,"x_min":0,"x_max":486,"o":"m 486 1042 l 208 -208 l 0 -208 l 278 1042 l 486 1042 z "},"\\":{"ha":556,"x_min":0,"x_max":486,"o":"m 208 1042 l 486 -208 l 278 -208 l 0 1042 l 208 1042 z "},"_":{"ha":625,"x_min":0,"x_max":556,"o":"m 556 0 l 556 -153 l 0 -153 l 0 0 l 556 0 z "},"-":{"ha":486,"x_min":0,"x_max":417,"o":"m 0 347 l 0 486 l 417 486 l 417 347 l 0 347 z "},"(":{"ha":375,"x_min":0,"x_max":306,"o":"m 306 1042 l 306 833 l 208 833 l 208 0 l 306 0 l 306 -208 l 0 -208 l 0 1042 l 306 1042 z "},")":{"ha":375,"x_min":0,"x_max":306,"o":"m 306 1042 l 306 -208 l 0 -208 l 0 0 l 97 0 l 97 833 l 0 833 l 0 1042 l 306 1042 z "},"*":{"ha":578,"x_min":0,"x_max":439,"o":"m 153 624 l 40 706 l 107 797 l 0 832 l 43 964 l 150 929 l 150 1042 l 289 1042 l 289 929 l 396 964 l 439 832 l 332 797 l 399 706 l 286 624 l 219 715 l 153 624 z "},"#":{"ha":1056,"x_min":0,"x_max":986,"o":"m 306 0 l 125 0 l 167 167 l 0 167 l 42 333 l 208 333 l 250 500 l 83 500 l 125 667 l 292 667 l 333 833 l 514 833 l 472 667 l 639 667 l 681 833 l 861 833 l 819 667 l 986 667 l 944 500 l 778 500 l 736 333 l 903 333 l 861 167 l 694 167 l 653 0 l 472 0 l 514 167 l 347 167 l 306 0 m 389 333 l 556 333 l 597 500 l 431 500 l 389 333 z "},"!":{"ha":278,"x_min":0,"x_max":208,"o":"m 0 833 l 208 833 l 181 278 l 28 278 l 0 833 m 0 208 l 208 208 l 208 0 l 0 0 l 0 208 z "},"?":{"ha":639,"x_min":0,"x_max":569,"o":"m 271 833 l 271 625 l 208 625 l 208 556 l 0 556 l 0 833 l 271 833 m 299 625 l 299 833 l 431 833 l 569 694 l 569 514 l 389 333 l 389 264 l 181 264 l 181 382 l 361 563 l 361 625 l 299 625 m 181 0 l 389 0 l 389 208 l 181 208 l 181 0 z "},"¡":{"ha":278,"x_min":0,"x_max":208,"o":"m 28 556 l 181 556 l 208 0 l 0 0 l 28 556 m 0 833 l 208 833 l 208 625 l 0 625 l 0 833 z "},"¿":{"ha":639,"x_min":0,"x_max":569,"o":"m 299 0 l 299 208 l 361 208 l 361 278 l 569 278 l 569 0 l 299 0 m 271 208 l 271 0 l 139 0 l 0 139 l 0 319 l 181 500 l 181 569 l 389 569 l 389 451 l 208 271 l 208 208 l 271 208 m 389 625 l 181 625 l 181 833 l 389 833 l 389 625 z "},"%":{"ha":764,"x_min":0,"x_max":694,"o":"m 0 833 l 208 833 l 208 625 l 0 625 l 0 833 m 556 833 l 347 0 l 139 0 l 347 833 l 556 833 m 486 208 l 694 208 l 694 0 l 486 0 l 486 208 z "},"+":{"ha":486,"x_min":0,"x_max":417,"o":"m 139 486 l 139 625 l 278 625 l 278 486 l 417 486 l 417 347 l 278 347 l 278 208 l 139 208 l 139 347 l 0 347 l 0 486 l 139 486 z "},"@":{"ha":660,"x_min":0,"x_max":597,"o":"m 478 664 l 428 714 l 169 714 l 119 664 l 119 169 l 169 119 l 597 119 l 597 0 l 119 0 l 0 119 l 0 714 l 119 833 l 478 833 l 597 714 l 597 239 l 239 239 l 239 594 l 478 594 l 478 664 z "},"€":{"ha":729,"x_min":0,"x_max":660,"o":"m 378 0 l 378 208 l 451 208 l 451 278 l 660 278 l 660 0 l 378 0 m 350 0 l 208 0 l 69 139 l 69 324 l 0 324 l 0 393 l 69 393 l 69 440 l 0 440 l 0 510 l 69 510 l 69 694 l 208 833 l 350 833 l 350 625 l 278 625 l 278 510 l 451 510 l 451 440 l 278 440 l 278 393 l 451 393 l 451 324 l 278 324 l 278 208 l 350 208 l 350 0 m 378 833 l 660 833 l 660 556 l 451 556 l 451 625 l 378 625 l 378 833 z "},"&":{"ha":639,"x_min":0,"x_max":569,"o":"m 333 0 l 333 -69 l 236 -69 l 236 0 l 0 0 l 0 347 l 69 417 l 0 486 l 0 694 l 139 833 l 236 833 l 236 903 l 333 903 l 333 833 l 569 833 l 569 521 l 361 521 l 361 625 l 208 625 l 208 486 l 361 486 l 361 347 l 208 347 l 208 208 l 361 208 l 361 313 l 569 313 l 569 139 l 431 0 l 333 0 z "},"ß":{"ha":708,"x_min":0,"x_max":639,"o":"m 368 833 l 500 833 l 639 694 l 639 486 l 569 417 l 639 347 l 639 139 l 500 0 l 347 0 l 347 208 l 431 208 l 431 347 l 347 347 l 347 486 l 431 486 l 431 625 l 368 625 l 368 833 m 340 625 l 278 625 l 278 0 l 0 0 l 0 208 l 69 208 l 69 694 l 208 833 l 340 833 l 340 625 z "},"£":{"ha":694,"x_min":0,"x_max":625,"o":"m 278 0 l 0 0 l 0 208 l 69 208 l 69 382 l 0 382 l 0 451 l 69 451 l 69 694 l 208 833 l 417 833 l 417 625 l 278 625 l 278 451 l 451 451 l 451 382 l 278 382 l 278 0 m 306 208 l 417 208 l 417 313 l 625 313 l 625 0 l 306 0 l 306 208 z "},"b":{"ha":694,"x_min":0,"x_max":625,"o":"m 417 208 l 417 347 l 306 347 l 306 486 l 417 486 l 417 625 l 306 625 l 306 833 l 486 833 l 625 694 l 625 486 l 556 417 l 625 347 l 625 139 l 486 0 l 306 0 l 306 208 l 417 208 m 278 0 l 0 0 l 0 208 l 69 208 l 69 625 l 0 625 l 0 833 l 278 833 l 278 0 z "},"=":{"ha":486,"x_min":0,"x_max":417,"o":"m 417 590 l 417 451 l 0 451 l 0 590 l 417 590 m 417 382 l 417 243 l 0 243 l 0 382 l 417 382 z "},"¥":{"ha":736,"x_min":0,"x_max":667,"o":"m 432 456 l 569 456 l 569 386 l 438 386 l 438 332 l 569 332 l 569 263 l 438 263 l 438 208 l 507 208 l 507 0 l 160 0 l 160 208 l 229 208 l 229 263 l 97 263 l 97 332 l 229 332 l 229 386 l 97 386 l 97 456 l 190 456 l 97 625 l 0 625 l 0 833 l 222 833 l 432 456 m 449 483 l 490 483 l 569 625 l 667 625 l 667 833 l 444 833 l 350 663 l 449 483 z "},"Ľ":{"ha":694,"x_min":0,"x_max":625,"o":"m 417 903 l 625 903 l 625 694 l 556 556 l 431 556 l 472 694 l 417 694 l 417 903 m 306 0 l 306 208 l 417 208 l 417 313 l 625 313 l 625 0 l 306 0 m 278 0 l 0 0 l 0 208 l 69 208 l 69 625 l 0 625 l 0 833 l 347 833 l 347 625 l 278 625 l 278 0 z "},"Ѕ":{"ha":639,"x_min":0,"x_max":569,"o":"m 299 833 l 569 833 l 569 556 l 361 556 l 361 625 l 299 625 l 299 833 m 271 0 l 0 0 l 0 278 l 208 278 l 208 208 l 271 208 l 271 0 m 299 208 l 361 208 l 361 285 l 0 396 l 0 694 l 139 833 l 271 833 l 271 625 l 208 625 l 208 549 l 569 438 l 569 139 l 431 0 l 299 0 l 299 208 z "},"Ї":{"ha":417,"x_min":-32,"x_max":385,"o":"m 347 833 l 347 625 l 278 625 l 278 208 l 347 208 l 347 0 l 0 0 l 0 208 l 69 208 l 69 625 l 0 625 l 0 833 l 347 833 m -32 1065 l 142 1065 l 142 892 l -32 892 l -32 1065 m 211 1065 l 385 1065 l 385 892 l 211 892 l 211 1065 z "},"Ј":{"ha":694,"x_min":0,"x_max":625,"o":"m 292 0 l 292 208 l 347 208 l 347 625 l 278 625 l 278 833 l 625 833 l 625 625 l 556 625 l 556 139 l 417 0 l 292 0 m 264 208 l 264 0 l 139 0 l 0 139 l 0 313 l 208 313 l 208 208 l 264 208 z "},"Ў":{"ha":736,"x_min":0,"x_max":667,"o":"m 125 951 l 150 1089 l 333 1039 l 517 1089 l 542 951 l 333 875 l 125 951 m 438 446 l 438 208 l 507 208 l 507 0 l 160 0 l 160 208 l 229 208 l 229 386 l 97 625 l 0 625 l 0 833 l 222 833 l 438 446 m 350 663 l 444 833 l 667 833 l 667 625 l 569 625 l 469 446 l 350 663 z "},"ѕ":{"ha":639,"x_min":0,"x_max":569,"o":"m 299 833 l 569 833 l 569 556 l 361 556 l 361 625 l 299 625 l 299 833 m 271 0 l 0 0 l 0 278 l 208 278 l 208 208 l 271 208 l 271 0 m 299 208 l 361 208 l 361 285 l 0 396 l 0 694 l 139 833 l 271 833 l 271 625 l 208 625 l 208 549 l 569 438 l 569 139 l 431 0 l 299 0 l 299 208 z "},"ї":{"ha":417,"x_min":-32,"x_max":385,"o":"m 347 833 l 347 625 l 278 625 l 278 208 l 347 208 l 347 0 l 0 0 l 0 208 l 69 208 l 69 625 l 0 625 l 0 833 l 347 833 m -32 1065 l 142 1065 l 142 892 l -32 892 l -32 1065 m 211 1065 l 385 1065 l 385 892 l 211 892 l 211 1065 z "},"ј":{"ha":694,"x_min":0,"x_max":625,"o":"m 292 0 l 292 208 l 347 208 l 347 625 l 278 625 l 278 833 l 625 833 l 625 625 l 556 625 l 556 139 l 417 0 l 292 0 m 264 208 l 264 0 l 139 0 l 0 139 l 0 313 l 208 313 l 208 208 l 264 208 z "},"ў":{"ha":736,"x_min":0,"x_max":667,"o":"m 125 951 l 150 1089 l 333 1039 l 517 1089 l 542 951 l 333 875 l 125 951 m 438 446 l 438 208 l 507 208 l 507 0 l 160 0 l 160 208 l 229 208 l 229 386 l 97 625 l 0 625 l 0 833 l 222 833 l 438 446 m 350 663 l 444 833 l 667 833 l 667 625 l 569 625 l 469 446 l 350 663 z "},"џ":{"ha":764,"x_min":0,"x_max":694,"o":"m 361 0 l 361 208 l 417 208 l 417 833 l 694 833 l 694 625 l 625 625 l 625 208 l 694 208 l 694 0 l 361 0 m 451 -28 l 451 -69 l 243 -69 l 243 -28 l 451 -28 m 333 0 l 0 0 l 0 208 l 69 208 l 69 625 l 0 625 l 0 833 l 278 833 l 278 208 l 333 208 l 333 0 z "},"Є":{"ha":639,"x_min":0,"x_max":569,"o":"m 299 833 l 431 833 l 569 694 l 569 521 l 361 521 l 361 625 l 299 625 l 299 833 m 299 208 l 361 208 l 361 313 l 569 313 l 569 139 l 431 0 l 299 0 l 299 208 m 271 208 l 271 0 l 139 0 l 0 139 l 0 694 l 139 833 l 271 833 l 271 625 l 208 625 l 208 486 l 361 486 l 361 347 l 208 347 l 208 208 l 271 208 z "},"є":{"ha":639,"x_min":0,"x_max":569,"o":"m 299 833 l 431 833 l 569 694 l 569 521 l 361 521 l 361 625 l 299 625 l 299 833 m 299 208 l 361 208 l 361 313 l 569 313 l 569 139 l 431 0 l 299 0 l 299 208 m 271 208 l 271 0 l 139 0 l 0 139 l 0 694 l 139 833 l 271 833 l 271 625 l 208 625 l 208 486 l 361 486 l 361 347 l 208 347 l 208 208 l 271 208 z "},"Ѓ":{"ha":694,"x_min":0,"x_max":625,"o":"m 139 1026 l 478 1103 l 508 932 l 164 889 l 139 1026 m 278 208 l 347 208 l 347 0 l 0 0 l 0 208 l 69 208 l 69 625 l 0 625 l 0 833 l 278 833 l 278 208 m 306 833 l 625 833 l 625 521 l 417 521 l 417 625 l 306 625 l 306 833 z "},"ѓ":{"ha":694,"x_min":0,"x_max":625,"o":"m 139 1026 l 478 1103 l 508 932 l 164 889 l 139 1026 m 278 208 l 347 208 l 347 0 l 0 0 l 0 208 l 69 208 l 69 625 l 0 625 l 0 833 l 278 833 l 278 208 m 306 833 l 625 833 l 625 521 l 417 521 l 417 625 l 306 625 l 306 833 z "},"Ћ":{"ha":868,"x_min":0,"x_max":799,"o":"m 215 625 l 174 625 l 174 556 l 0 556 l 0 833 l 215 833 l 215 625 m 479 625 l 479 833 l 694 833 l 694 556 l 521 556 l 521 625 l 479 625 m 451 0 l 174 0 l 174 208 l 243 208 l 243 833 l 451 833 l 451 0 m 479 486 l 590 486 l 729 347 l 729 208 l 799 208 l 799 0 l 521 0 l 521 278 l 479 278 l 479 486 z "},"ћ":{"ha":868,"x_min":0,"x_max":799,"o":"m 215 625 l 174 625 l 174 556 l 0 556 l 0 833 l 215 833 l 215 625 m 479 625 l 479 833 l 694 833 l 694 556 l 521 556 l 521 625 l 479 625 m 451 0 l 174 0 l 174 208 l 243 208 l 243 833 l 451 833 l 451 0 m 479 486 l 590 486 l 729 347 l 729 208 l 799 208 l 799 0 l 521 0 l 521 278 l 479 278 l 479 486 z "},"Ђ":{"ha":833,"x_min":0,"x_max":764,"o":"m 694 833 l 694 556 l 521 556 l 521 625 l 479 625 l 479 833 l 694 833 m 451 0 l 174 0 l 174 208 l 243 208 l 243 833 l 451 833 l 451 0 m 479 486 l 625 486 l 764 347 l 764 69 l 625 -69 l 507 -69 l 507 139 l 556 139 l 556 278 l 479 278 l 479 486 m 215 625 l 174 625 l 174 556 l 0 556 l 0 833 l 215 833 l 215 625 z "},"ђ":{"ha":833,"x_min":0,"x_max":764,"o":"m 694 833 l 694 556 l 521 556 l 521 625 l 479 625 l 479 833 l 694 833 m 451 0 l 174 0 l 174 208 l 243 208 l 243 833 l 451 833 l 451 0 m 479 486 l 625 486 l 764 347 l 764 69 l 625 -69 l 507 -69 l 507 139 l 556 139 l 556 278 l 479 278 l 479 486 m 215 625 l 174 625 l 174 556 l 0 556 l 0 833 l 215 833 l 215 625 z "},"C":{"ha":660,"x_min":0,"x_max":590,"o":"m 308 625 l 308 833 l 590 833 l 590 521 l 382 521 l 382 625 l 308 625 m 308 208 l 308 0 l 590 0 l 590 313 l 382 313 l 382 208 l 308 208 m 281 0 l 281 208 l 208 208 l 208 625 l 281 625 l 281 833 l 139 833 l 0 694 l 0 139 l 139 0 l 281 0 z "},"O":{"ha":660,"x_min":0,"x_max":590,"o":"m 451 833 l 590 694 l 590 139 l 451 0 l 308 0 l 308 208 l 382 208 l 382 625 l 308 625 l 308 833 l 451 833 m 139 0 l 0 139 l 0 694 l 139 833 l 281 833 l 281 625 l 208 625 l 208 208 l 281 208 l 281 0 l 139 0 z "},"A":{"ha":764,"x_min":0,"x_max":694,"o":"m 247 0 l 0 0 l 0 208 l 69 208 l 168 833 l 285 833 l 333 535 l 247 0 m 336 375 l 388 375 l 314 833 l 526 833 l 625 208 l 694 208 l 694 0 l 447 0 l 414 208 l 310 208 l 336 375 z "},"Љ":{"ha":1076,"x_min":0,"x_max":1007,"o":"m 424 625 l 347 625 l 247 0 l 0 0 l 0 208 l 69 208 l 168 833 l 424 833 l 424 625 m 688 208 l 799 208 l 799 347 l 688 347 l 688 556 l 868 556 l 1007 417 l 1007 139 l 868 0 l 688 0 l 688 208 m 660 0 l 451 0 l 451 833 l 729 833 l 729 625 l 660 625 l 660 0 z "}}}
